<svg id="Color_Pattern" xmlns="http://www.w3.org/2000/svg" viewBox="0 0 944.97 673.05"><defs><style>.cls-1{fill:#8daf61;}.cls-2{fill:#a31432;}.cls-3{fill:#ff7193;}.cls-4{fill:#940021;}.cls-5{fill:#d4e3fc;}.cls-6{fill:#b8cd9c;}.cls-7{fill:#68952e;}.cls-37,.cls-8{fill:#fff;}.cls-9{fill:#bacae9;}.cls-10,.cls-15,.cls-20,.cls-23,.cls-28,.cls-31,.cls-36{fill:none;}.cls-10,.cls-15,.cls-20,.cls-28,.cls-31,.cls-36{stroke:#2e4369;stroke-linecap:round;stroke-linejoin:round;}.cls-10{stroke-width:2.92px;}.cls-11{fill:#dd9c62;}.cls-12{fill:#f7b36c;}.cls-13{fill:#f26169;}.cls-14{fill:#f0464f;}.cls-15{stroke-width:2.16px;}.cls-16{fill:#f9ca99;}.cls-17{fill:#6c3;}.cls-18{fill:#e2a874;}.cls-19{fill:#da8f4c;}.cls-20{stroke-width:2.27px;}.cls-21{fill:#964e47;}.cls-22{fill:#8b3b33;}.cls-24{fill:#ffc200;}.cls-25{fill:#fbd9b6;}.cls-26{fill:#d1792a;}.cls-27{fill:#f44747;}.cls-28,.cls-37{stroke-width:2px;}.cls-29{fill:#fcefe4;}.cls-30{fill:#e0d5cd;}.cls-31{stroke-width:2.16px;}.cls-32{fill:#a9b32b;}.cls-33{fill:#939622;}.cls-34{fill:#d3db9a;}.cls-35{fill:#b8bc84;}.cls-36{stroke-width:2.26px;}.cls-37{stroke:#000;stroke-miterlimit:10;}.cls-38{fill:#d13147;}.cls-39{fill:#ffe161;}.cls-40{fill:#ffd007;}</style></defs><title>CoolBeansBkgrnd_cropped</title><path class="cls-1" d="M190.33,99l11.12,27,2.62-1.08c8.11-3.34,12.87-14.77,18.27-17l-4.45-10.8c-5.4,2.22-16.84-2.54-24.94.8l-41.85,17.23c-2.24.92-3.12,3.92.2,12l2.62,6.37c3.49,8.48,6.06,9.57,8.3,8.65l9.52-3.92-11.12-27Z" transform="translate(-59.99 -51.39)"/><rect class="cls-2" x="219.56" y="93.9" width="14.6" height="11.68" transform="translate(-80.88 42.48) rotate(-22.38)"/><rect class="cls-3" x="220.9" y="100.82" width="14.6" height="4.38" transform="translate(-82.02 43.24) rotate(-22.38)"/><rect class="cls-4" x="218.17" y="94.18" width="14.6" height="4.38" transform="translate(-79.7 41.7) rotate(-22.38)"/><rect class="cls-5" x="164.96" y="104.02" width="32.14" height="29.2" transform="translate(-91.51 26.46) rotate(-22.38)"/><path class="cls-6" d="M221.17,105.11l-.56-1.35c-5.4,2.22-12.39,8.25-20.5,11.59l-2.62,1.08,2.23,5.41,2.62-1.08C210.45,117.42,215.77,107.34,221.17,105.11Z" transform="translate(-59.99 -51.39)"/><path class="cls-6" d="M155.57,133.69a3.3,3.3,0,0,1-1.33.27c2.75,5.47,4.35,4.81,6.26,4l9.52-3.92-2.23-5.41Z" transform="translate(-59.99 -51.39)"/><path class="cls-7" d="M153.32,120.55l9.52-3.92-2.23-5.4L190.33,99l2.23,5.4,2.62-1.08c8.11-3.34,19,.08,24.39-2.15l-1.67-4.05c-5.4,2.22-16.84-2.54-24.94.8l-41.85,17.23c-2.24.92-3.12,3.92.2,12l1.67,4.06C149.64,123.13,151.08,121.48,153.32,120.55Z" transform="translate(-59.99 -51.39)"/><rect class="cls-8" x="169.08" y="124.85" width="32.14" height="7.55" transform="translate(-95.01 28.78) rotate(-22.38)"/><rect class="cls-9" x="160.51" y="104.89" width="32.14" height="5.84" transform="translate(-87.74 23.95) rotate(-22.38)"/><rect class="cls-10" x="219.56" y="93.9" width="14.6" height="11.68" transform="translate(-80.88 42.48) rotate(-22.38)"/><path class="cls-10" d="M160.55,111.26l-9.46,3.89c-2.24.92-3.12,3.92.2,12l2.62,6.37c3.49,8.47,6.06,9.57,8.3,8.65l9.46-3.89" transform="translate(-59.99 -51.39)"/><path class="cls-10" d="M217.88,97.12c-5.4,2.22-16.84-2.54-24.94.8L190.27,99l11.12,27,2.67-1.1c8.11-3.34,12.87-14.77,18.27-17" transform="translate(-59.99 -51.39)"/><rect class="cls-10" x="164.9" y="104.04" width="32.14" height="29.2" transform="translate(-91.53 26.44) rotate(-22.38)"/><path class="cls-11" d="M627.86,286.69l.45,1.08A10.86,10.86,0,0,1,622.43,302L582.3,318.56a10.85,10.85,0,0,1-14.18-5.88l-.45-1.08" transform="translate(-59.99 -51.39)"/><path class="cls-12" d="M561.93,297.72l-.45-1.08a10.85,10.85,0,0,1,5.88-14.18l40.12-16.61a10.86,10.86,0,0,1,14.18,5.88l.45,1.08" transform="translate(-59.99 -51.39)"/><path class="cls-13" d="M572.13,311a8.69,8.69,0,0,1-11.35-4.7h0a8.69,8.69,0,0,1,4.7-11.35l52.16-21.59a8.69,8.69,0,0,1,11.35,4.7h0a8.69,8.69,0,0,1-4.7,11.35Z" transform="translate(-59.99 -51.39)"/><path class="cls-14" d="M629.6,280.45a8.65,8.65,0,0,1-4.65,4.59l-52.16,21.59a8.67,8.67,0,0,1-11.95-7.06A8.68,8.68,0,0,0,572.13,311l52.16-21.59A8.68,8.68,0,0,0,629.6,280.45Z" transform="translate(-59.99 -51.39)"/><path class="cls-15" d="M627.86,286.69l.45,1.08A10.86,10.86,0,0,1,622.43,302L582.3,318.56a10.85,10.85,0,0,1-14.18-5.88l-.45-1.08" transform="translate(-59.99 -51.39)"/><path class="cls-15" d="M561.93,297.72l-.45-1.08a10.85,10.85,0,0,1,5.88-14.18l40.12-16.61a10.86,10.86,0,0,1,14.18,5.88l.45,1.08" transform="translate(-59.99 -51.39)"/><path class="cls-15" d="M572.13,311a8.69,8.69,0,0,1-11.35-4.7h0a8.68,8.68,0,0,1,4.7-11.34l52.16-21.59a8.68,8.68,0,0,1,11.35,4.7h0a8.68,8.68,0,0,1-4.7,11.34Z" transform="translate(-59.99 -51.39)"/><path class="cls-15" d="M621,281.42c-.21,3.17-2.86,4.39-5.28,2.18s-4.82-1.15-5.28,2.18-2.6,4.22-5.28,2.19-5-1-5.28,2.18-2.79,4.23-5.28,2.18-4.84-1-5.28,2.18" transform="translate(-59.99 -51.39)"/><path class="cls-15" d="M589.46,294.46c-.21,3.18-2.86,4.39-5.28,2.18s-4.82-1.15-5.28,2.18-2.6,4.22-5.28,2.19-5-1-5.28,2.18" transform="translate(-59.99 -51.39)"/><path class="cls-11" d="M228.43,286.69l.45,1.08A10.86,10.86,0,0,1,223,302l-40.13,16.61a10.85,10.85,0,0,1-14.18-5.88l-.45-1.08" transform="translate(-59.99 -51.39)"/><path class="cls-12" d="M162.5,297.72l-.45-1.08a10.85,10.85,0,0,1,5.88-14.18l40.12-16.61a10.86,10.86,0,0,1,14.18,5.88l.45,1.08" transform="translate(-59.99 -51.39)"/><path class="cls-13" d="M172.71,311a8.69,8.69,0,0,1-11.35-4.7h0a8.69,8.69,0,0,1,4.7-11.35l52.16-21.59a8.69,8.69,0,0,1,11.35,4.7h0a8.69,8.69,0,0,1-4.7,11.35Z" transform="translate(-59.99 -51.39)"/><path class="cls-14" d="M230.17,280.45a8.65,8.65,0,0,1-4.65,4.59l-52.16,21.59a8.67,8.67,0,0,1-11.95-7.06A8.68,8.68,0,0,0,172.71,311l52.16-21.59A8.68,8.68,0,0,0,230.17,280.45Z" transform="translate(-59.99 -51.39)"/><path class="cls-15" d="M228.43,286.69l.45,1.08A10.86,10.86,0,0,1,223,302l-40.13,16.61a10.85,10.85,0,0,1-14.18-5.88l-.45-1.08" transform="translate(-59.99 -51.39)"/><path class="cls-15" d="M162.5,297.72l-.45-1.08a10.85,10.85,0,0,1,5.88-14.18l40.12-16.61a10.86,10.86,0,0,1,14.18,5.88l.45,1.08" transform="translate(-59.99 -51.39)"/><path class="cls-15" d="M172.71,311a8.69,8.69,0,0,1-11.35-4.7h0a8.68,8.68,0,0,1,4.7-11.34l52.16-21.59a8.68,8.68,0,0,1,11.35,4.7h0a8.68,8.68,0,0,1-4.7,11.34Z" transform="translate(-59.99 -51.39)"/><path class="cls-15" d="M221.55,281.42c-.21,3.17-2.86,4.39-5.28,2.18s-4.82-1.15-5.28,2.18-2.6,4.22-5.28,2.19-5-1-5.28,2.18-2.79,4.23-5.28,2.18-4.84-1-5.28,2.18" transform="translate(-59.99 -51.39)"/><path class="cls-15" d="M190,294.46c-.21,3.18-2.86,4.39-5.28,2.18s-4.82-1.15-5.28,2.18-2.6,4.22-5.28,2.19-5-1-5.28,2.18" transform="translate(-59.99 -51.39)"/><path class="cls-16" d="M279.93,232.61a7.63,7.63,0,0,0,1.26-.55Z" transform="translate(-59.99 -51.39)"/><path class="cls-16" d="M329.86,189.81c-3.67-6.82-11.18-11.89-23.51-7.43s-15.42,15.39-17,28.52c-.8,6.75-1.91,12.21-3.75,16h0a11,11,0,0,1-4.45,5.14L336.35,208S333.54,196.63,329.86,189.81Z" transform="translate(-59.99 -51.39)"/><path class="cls-17" d="M306.36,182.38a24.34,24.34,0,0,1,10.21-1.62h0c1.3-4.4-3.86-7.55-7.74-4.93s-8.87.34-8.87.34c-3.7-1.18-8.84.71-9.1,5.43s.5,6.06-2.27,8.21c-1.85,1.44-7.81,1.51-5.74,6.92,1.76,4.63-.21,6.58-2.63,7.87-3.79,2-4.2,5-2.63,7.61s5,4.17,2.82,7.35c-1.16,1.7-2.4,6.29,5.23,7.36,1.84-3.81,3-9.27,3.75-16C290.95,197.78,294,186.84,306.36,182.38Z" transform="translate(-59.99 -51.39)"/><path class="cls-18" d="M280.4,219.56c2.16-3.18-1.25-4.73-2.82-7.35s-1.16-5.59,2.62-7.6c2.42-1.29,4.39-3.24,2.63-7.87-2.06-5.41,3.89-5.48,5.74-6.92,2.77-2.15,2-3.49,2.28-8.22a5.83,5.83,0,0,1,3.77-5.16h0a9.78,9.78,0,0,0-8.31,2,49.07,49.07,0,0,0-18.2,38.67c0,8.78,1.14,15.92,9.1,15.92,3.87,0,6.53-2.18,8.43-6.11C278,225.86,279.24,221.27,280.4,219.56Z" transform="translate(-59.99 -51.39)"/><path class="cls-19" d="M285.78,191.3c.2-.16.39-.31.56-.46a8.8,8.8,0,0,0-2.92,1.55A9.7,9.7,0,0,0,285.78,191.3Z" transform="translate(-59.99 -51.39)"/><path class="cls-19" d="M277.35,207.11a6.36,6.36,0,0,0,2.19-2.13A6.55,6.55,0,0,0,277.35,207.11Z" transform="translate(-59.99 -51.39)"/><path class="cls-19" d="M294.61,176.44a11.59,11.59,0,0,0-1.33-.15,6.56,6.56,0,0,0-5,6c-.27,4.85.44,6.46-1.95,8.57a9.35,9.35,0,0,0,2.23-1c2.77-2.15,2-3.49,2.28-8.22a5.83,5.83,0,0,1,3.77-5.16Z" transform="translate(-59.99 -51.39)"/><path class="cls-19" d="M279.46,198.91c1.06,2.79.89,4.69.08,6.08.21-.13.43-.26.66-.38,2.42-1.29,4.39-3.24,2.63-7.87-.82-2.16-.36-3.46.59-4.34C280.86,193.35,277.8,194.55,279.46,198.91Z" transform="translate(-59.99 -51.39)"/><path class="cls-19" d="M273.69,215.93c1.73,2.89,5.48,4.59,3.1,8.09-1.21,1.78-2.49,6.44,4.64,7.9.36.07-.4-.06,0,0a8,8,0,0,0,1.84-1.46,13.65,13.65,0,0,0,2.36-3.52c-.41-.06-.78-.13-1.14-.21-6.34-1.35-5.18-5.55-4.09-7.16,2.16-3.18-1.25-4.73-2.82-7.35a4.77,4.77,0,0,1-.22-5.1q-.38.24-.78.45C272.41,209.79,272,213,273.69,215.93Z" transform="translate(-59.99 -51.39)"/><path class="cls-20" d="M279.91,232.62,336.35,208s-2.81-11.38-6.49-18.2-11.18-11.89-23.51-7.43-15.42,15.39-17,28.52C287.77,224.61,284.83,233,277.2,233c-8,0-9.1-7.15-9.1-15.92a49.07,49.07,0,0,1,18.2-38.67,9.79,9.79,0,0,1,8.31-2" transform="translate(-59.99 -51.39)"/><path class="cls-20" d="M285.64,226.93c-7.64-1.07-6.39-5.66-5.23-7.37,2.16-3.18-1.25-4.73-2.82-7.35s-1.16-5.59,2.62-7.61c2.42-1.29,4.39-3.24,2.63-7.87-2.06-5.41,3.89-5.48,5.74-6.92,2.77-2.15,2-3.49,2.28-8.21s5.4-6.61,9.1-5.43c0,0,5,2.27,8.87-.34s9,.54,7.74,4.93" transform="translate(-59.99 -51.39)"/><path class="cls-16" d="M477.93,413.61a7.63,7.63,0,0,0,1.26-.55Z" transform="translate(-59.99 -51.39)"/><path class="cls-16" d="M527.86,370.81c-3.67-6.82-11.18-11.89-23.51-7.43s-15.42,15.39-17,28.52c-.8,6.75-1.91,12.21-3.75,16h0a11,11,0,0,1-4.45,5.14L534.35,389S531.54,377.63,527.86,370.81Z" transform="translate(-59.99 -51.39)"/><path class="cls-17" d="M504.36,363.38a24.34,24.34,0,0,1,10.21-1.62h0c1.3-4.4-3.86-7.55-7.74-4.93s-8.87.34-8.87.34c-3.7-1.18-8.84.71-9.1,5.43s.5,6.06-2.27,8.21c-1.85,1.44-7.81,1.51-5.74,6.92,1.76,4.63-.21,6.58-2.63,7.87-3.79,2-4.2,5-2.63,7.61s5,4.17,2.82,7.35c-1.16,1.7-2.4,6.29,5.23,7.36,1.84-3.81,3-9.27,3.75-16C488.95,378.78,492,367.84,504.36,363.38Z" transform="translate(-59.99 -51.39)"/><path class="cls-18" d="M478.4,400.56c2.16-3.18-1.25-4.73-2.82-7.35s-1.16-5.59,2.62-7.6c2.42-1.29,4.39-3.24,2.63-7.87-2.06-5.41,3.89-5.48,5.74-6.92,2.77-2.15,2-3.49,2.28-8.22a5.83,5.83,0,0,1,3.77-5.16h0a9.78,9.78,0,0,0-8.31,2,49.07,49.07,0,0,0-18.2,38.67c0,8.78,1.14,15.92,9.1,15.92,3.87,0,6.53-2.18,8.43-6.11C476,406.86,477.24,402.27,478.4,400.56Z" transform="translate(-59.99 -51.39)"/><path class="cls-19" d="M483.78,372.3c.2-.16.39-.31.56-.46a8.8,8.8,0,0,0-2.92,1.55A9.7,9.7,0,0,0,483.78,372.3Z" transform="translate(-59.99 -51.39)"/><path class="cls-19" d="M475.35,388.11a6.36,6.36,0,0,0,2.19-2.13A6.55,6.55,0,0,0,475.35,388.11Z" transform="translate(-59.99 -51.39)"/><path class="cls-19" d="M492.61,357.44a11.59,11.59,0,0,0-1.33-.15,6.56,6.56,0,0,0-5,6c-.27,4.85.44,6.46-1.95,8.57a9.35,9.35,0,0,0,2.23-1c2.77-2.15,2-3.49,2.28-8.22a5.83,5.83,0,0,1,3.77-5.16Z" transform="translate(-59.99 -51.39)"/><path class="cls-19" d="M477.46,379.91c1.06,2.79.89,4.69.08,6.08.21-.13.43-.26.66-.38,2.42-1.29,4.39-3.24,2.63-7.87-.82-2.16-.36-3.46.59-4.34C478.86,374.35,475.8,375.55,477.46,379.91Z" transform="translate(-59.99 -51.39)"/><path class="cls-19" d="M471.69,396.93c1.73,2.89,5.48,4.59,3.1,8.09-1.21,1.78-2.49,6.44,4.64,7.9.36.07-.4-.06,0,0a8,8,0,0,0,1.84-1.46,13.65,13.65,0,0,0,2.36-3.52c-.41-.06-.78-.13-1.14-.21-6.34-1.35-5.18-5.55-4.09-7.16,2.16-3.18-1.25-4.73-2.82-7.35a4.77,4.77,0,0,1-.22-5.1q-.38.24-.78.45C470.41,390.79,470,394,471.69,396.93Z" transform="translate(-59.99 -51.39)"/><path class="cls-20" d="M477.91,413.62,534.35,389s-2.81-11.38-6.49-18.2-11.18-11.89-23.51-7.43-15.42,15.39-17,28.52C485.77,405.61,482.83,414,475.2,414c-8,0-9.1-7.15-9.1-15.92a49.07,49.07,0,0,1,18.2-38.67,9.79,9.79,0,0,1,8.31-2" transform="translate(-59.99 -51.39)"/><path class="cls-20" d="M483.64,407.93c-7.64-1.07-6.39-5.66-5.23-7.37,2.16-3.18-1.25-4.73-2.82-7.35s-1.16-5.59,2.62-7.61c2.42-1.29,4.39-3.24,2.63-7.87-2.06-5.41,3.89-5.48,5.74-6.92,2.77-2.15,2-3.49,2.28-8.21s5.4-6.61,9.1-5.43c0,0,5,2.27,8.87-.34s9,.54,7.74,4.93" transform="translate(-59.99 -51.39)"/><path class="cls-12" d="M417.73,82.66h0a24,24,0,1,0-44.2,18.72h0Z" transform="translate(-59.99 -51.39)"/><path class="cls-21" d="M432.23,101.5a5,5,0,0,1-2.65,6.55l-46,19.5A5,5,0,0,1,377,124.9h0a5,5,0,0,1,2.65-6.55l46-19.5a5,5,0,0,1,6.55,2.65Z" transform="translate(-59.99 -51.39)"/><path class="cls-21" d="M373.36,111.23a5,5,0,0,0-.28,4.46h0a5,5,0,0,0,6.55,2.65l46-19.5a5,5,0,0,0,2.65-6.55h0a5,5,0,0,0-4.62-3.05" transform="translate(-59.99 -51.39)"/><path class="cls-22" d="M425.43,95.66l-46,19.5a5,5,0,0,1-6.54-2.63,5,5,0,0,0,6.79,5.79l46-19.5a5,5,0,0,0,2.65-6.55v0A5,5,0,0,1,425.43,95.66Z" transform="translate(-59.99 -51.39)"/><path class="cls-11" d="M429.57,108.05l1.44,4.82a3.67,3.67,0,0,1-2,4.1l-38.67,16.38a3.74,3.74,0,0,1-4.45-1.37l-2.42-4.41" transform="translate(-59.99 -51.39)"/><polygon class="cls-23" points="356.44 58.97 358.29 58.19 356.79 58.09 356.44 58.97"/><polygon class="cls-24" points="342.67 57.2 342.67 57.2 356.79 58.09 356.79 58.09 358.29 58.19 360.52 58.33 361.05 57.02 364.75 47.81 342.67 57.2"/><path class="cls-22" d="M430.27,104.5,421,108.41l-.53,1.31-2.23-.14-1.85.78.35-.88-14.12-.89-4.6,2,11.75,2.62L384.23,124a5,5,0,0,1-6.86-3.7,5,5,0,0,0,6.19,7.24l31.28-13.25h0L429.59,108a5,5,0,0,0,3-5.51A5,5,0,0,1,430.27,104.5Z" transform="translate(-59.99 -51.39)"/><polygon class="cls-22" points="356.79 58.09 342.67 57.2 342.67 57.2 356.79 58.09 356.79 58.09"/><path class="cls-7" d="M373.53,101.39c-1.84.78-6.77,8.69-.17,9.85,3.79.45,5.11-5.25,6.26-5.74s7.08,1.17,12.55-1.15S399,97.11,401.66,96s6.28,1.68,8.93.56,3.65-3.72,6.59-5,9.21-1.87,8.43-5.74-7.87-3.18-7.87-3.18" transform="translate(-59.99 -51.39)"/><circle class="cls-25" cx="401.22" cy="74.45" r="1" transform="translate(-57.25 111.01) rotate(-22.96)"/><circle class="cls-25" cx="396.48" cy="78.63" r="1" transform="translate(-59.25 109.49) rotate(-22.96)"/><circle class="cls-25" cx="389.41" cy="77.28" r="1" transform="translate(-59.29 106.62) rotate(-22.96)"/><circle class="cls-25" cx="388.05" cy="84.37" r="1" transform="translate(-62.16 106.66) rotate(-22.96)"/><circle class="cls-25" cx="380.96" cy="83.03" r="1" transform="translate(-62.2 103.78) rotate(-22.96)"/><polygon class="cls-26" points="323.53 76.17 325.47 79.69 370.79 60.49 369.64 56.64 323.53 76.17"/><path class="cls-27" d="M417.18,91.59a8.49,8.49,0,0,0-2.35,1.53l6.88-3C420.12,90.68,418.37,91.08,417.18,91.59Z" transform="translate(-59.99 -51.39)"/><path class="cls-27" d="M379.63,105.5c-.73.31-1.52,2.69-3,4.29l9.61-4.2C383,105.74,380.36,105.19,379.63,105.5Z" transform="translate(-59.99 -51.39)"/><path class="cls-27" d="M401.67,96c-1.65.7-2.8,2.87-4.76,5l10.16-4.44C405.2,96.05,403.26,95.31,401.67,96Z" transform="translate(-59.99 -51.39)"/><path class="cls-28" d="M417.73,82.66h0a24,24,0,1,0-44.2,18.72h0Z" transform="translate(-59.99 -51.39)"/><path class="cls-28" d="M432.23,101.5a5,5,0,0,1-2.65,6.55l-46,19.5A5,5,0,0,1,377,124.9h0a5,5,0,0,1,2.65-6.55l46-19.5a5,5,0,0,1,6.55,2.65Z" transform="translate(-59.99 -51.39)"/><path class="cls-28" d="M423.71,89.24a5,5,0,0,1,4.62,3.05h0a5,5,0,0,1-2.65,6.55" transform="translate(-59.99 -51.39)"/><path class="cls-28" d="M379.63,118.35a5,5,0,0,1-6.55-2.65h0a5,5,0,0,1,.28-4.46" transform="translate(-59.99 -51.39)"/><path class="cls-28" d="M429.57,108.05l1.44,4.82a3.67,3.67,0,0,1-2,4.1l-38.67,16.38a3.74,3.74,0,0,1-4.45-1.37l-2.42-4.41" transform="translate(-59.99 -51.39)"/><polyline class="cls-28" points="342.67 57.2 360.52 58.33 364.75 47.81"/><path class="cls-28" d="M373.53,101.39c-1.84.78-6.77,8.69-.17,9.85,3.79.45,5.11-5.25,6.26-5.74s7.08,1.17,12.55-1.15S399,97.11,401.66,96s6.28,1.68,8.93.56,3.65-3.72,6.59-5,9.21-1.87,8.43-5.74-7.87-3.18-7.87-3.18" transform="translate(-59.99 -51.39)"/><circle class="cls-28" cx="401.22" cy="74.45" r="1" transform="translate(-57.25 111.01) rotate(-22.96)"/><circle class="cls-28" cx="396.48" cy="78.63" r="1" transform="translate(-59.25 109.49) rotate(-22.96)"/><circle class="cls-28" cx="389.41" cy="77.28" r="1" transform="translate(-59.29 106.62) rotate(-22.96)"/><circle class="cls-28" cx="388.05" cy="84.37" r="1" transform="translate(-62.16 106.66) rotate(-22.96)"/><circle class="cls-28" cx="380.96" cy="83.03" r="1" transform="translate(-62.2 103.78) rotate(-22.96)"/><path class="cls-29" d="M461.14,213.26a32.36,32.36,0,0,0,59.54-25Z" transform="translate(-59.99 -51.39)"/><path class="cls-30" d="M507.77,224.11a32.37,32.37,0,0,1-40.45-13.45l-6.18,2.6a32.38,32.38,0,0,0,52.76,7.44A32.55,32.55,0,0,1,507.77,224.11Z" transform="translate(-59.99 -51.39)"/><path class="cls-8" d="M517.68,189.47c3.45,8.2,1.49,24.78-9.41,32.29,10.51-8,1.2-28.84,1.2-28.84Z" transform="translate(-59.99 -51.39)"/><line class="cls-31" x1="433.06" y1="115.63" x2="430.92" y2="149.34"/><line class="cls-31" x1="448.36" y1="118.57" x2="438.81" y2="146.02"/><path class="cls-31" d="M461.07,213.29a32.36,32.36,0,0,0,59.54-25Z" transform="translate(-59.99 -51.39)"/><line class="cls-31" x1="434.3" y1="185.41" x2="454.2" y2="177.04"/><path class="cls-29" d="M61.14,213.26a32.36,32.36,0,0,0,59.54-25Z" transform="translate(-59.99 -51.39)"/><path class="cls-30" d="M107.77,224.11a32.37,32.37,0,0,1-40.45-13.45l-6.18,2.6a32.38,32.38,0,0,0,52.76,7.44A32.55,32.55,0,0,1,107.77,224.11Z" transform="translate(-59.99 -51.39)"/><path class="cls-8" d="M117.68,189.47c3.45,8.2,1.49,24.78-9.41,32.29,10.51-8,1.2-28.84,1.2-28.84Z" transform="translate(-59.99 -51.39)"/><line class="cls-31" x1="33.06" y1="115.63" x2="30.92" y2="149.34"/><line class="cls-31" x1="48.36" y1="118.57" x2="38.81" y2="146.02"/><path class="cls-31" d="M61.07,213.29a32.36,32.36,0,0,0,59.54-25Z" transform="translate(-59.99 -51.39)"/><line class="cls-31" x1="34.3" y1="185.41" x2="54.2" y2="177.04"/><path class="cls-11" d="M627.86,685.67l.45,1.08a10.86,10.86,0,0,1-5.88,14.18L582.3,717.54a10.85,10.85,0,0,1-14.18-5.88l-.45-1.08" transform="translate(-59.99 -51.39)"/><path class="cls-12" d="M561.93,696.7l-.45-1.08a10.85,10.85,0,0,1,5.88-14.18l40.12-16.61a10.86,10.86,0,0,1,14.18,5.88l.45,1.08" transform="translate(-59.99 -51.39)"/><path class="cls-13" d="M572.13,710a8.69,8.69,0,0,1-11.35-4.7h0a8.69,8.69,0,0,1,4.7-11.35l52.16-21.59a8.69,8.69,0,0,1,11.35,4.7h0a8.69,8.69,0,0,1-4.7,11.35Z" transform="translate(-59.99 -51.39)"/><path class="cls-14" d="M629.6,679.43a8.65,8.65,0,0,1-4.65,4.59L572.79,705.6a8.67,8.67,0,0,1-11.95-7.06A8.68,8.68,0,0,0,572.13,710l52.16-21.59A8.68,8.68,0,0,0,629.6,679.43Z" transform="translate(-59.99 -51.39)"/><path class="cls-15" d="M627.86,685.67l.45,1.08a10.86,10.86,0,0,1-5.88,14.18L582.3,717.54a10.85,10.85,0,0,1-14.18-5.88l-.45-1.08" transform="translate(-59.99 -51.39)"/><path class="cls-15" d="M561.93,696.7l-.45-1.08a10.85,10.85,0,0,1,5.88-14.18l40.12-16.61a10.86,10.86,0,0,1,14.18,5.88l.45,1.08" transform="translate(-59.99 -51.39)"/><path class="cls-15" d="M572.13,710a8.69,8.69,0,0,1-11.35-4.7h0a8.68,8.68,0,0,1,4.7-11.34l52.16-21.59a8.68,8.68,0,0,1,11.35,4.7h0a8.68,8.68,0,0,1-4.7,11.34Z" transform="translate(-59.99 -51.39)"/><path class="cls-15" d="M621,680.4c-.21,3.17-2.86,4.39-5.28,2.18s-4.82-1.15-5.28,2.18-2.6,4.22-5.28,2.19-5-1-5.28,2.18-2.79,4.23-5.28,2.18-4.84-1-5.28,2.18" transform="translate(-59.99 -51.39)"/><path class="cls-15" d="M589.46,693.44c-.21,3.18-2.86,4.39-5.28,2.18s-4.82-1.15-5.28,2.18-2.6,4.22-5.28,2.19-5-1-5.28,2.18" transform="translate(-59.99 -51.39)"/><path class="cls-11" d="M227.86,685.67l.45,1.08a10.86,10.86,0,0,1-5.88,14.18L182.3,717.54a10.85,10.85,0,0,1-14.18-5.88l-.45-1.08" transform="translate(-59.99 -51.39)"/><path class="cls-12" d="M161.93,696.7l-.45-1.08a10.85,10.85,0,0,1,5.88-14.18l40.12-16.61a10.86,10.86,0,0,1,14.18,5.88l.45,1.08" transform="translate(-59.99 -51.39)"/><path class="cls-13" d="M172.13,710a8.69,8.69,0,0,1-11.35-4.7h0a8.69,8.69,0,0,1,4.7-11.35l52.16-21.59a8.69,8.69,0,0,1,11.35,4.7h0a8.69,8.69,0,0,1-4.7,11.35Z" transform="translate(-59.99 -51.39)"/><path class="cls-14" d="M229.6,679.43a8.65,8.65,0,0,1-4.65,4.59L172.79,705.6a8.67,8.67,0,0,1-11.95-7.06A8.68,8.68,0,0,0,172.13,710l52.16-21.59A8.68,8.68,0,0,0,229.6,679.43Z" transform="translate(-59.99 -51.39)"/><path class="cls-15" d="M227.86,685.67l.45,1.08a10.86,10.86,0,0,1-5.88,14.18L182.3,717.54a10.85,10.85,0,0,1-14.18-5.88l-.45-1.08" transform="translate(-59.99 -51.39)"/><path class="cls-15" d="M161.93,696.7l-.45-1.08a10.85,10.85,0,0,1,5.88-14.18l40.12-16.61a10.86,10.86,0,0,1,14.18,5.88l.45,1.08" transform="translate(-59.99 -51.39)"/><path class="cls-15" d="M172.13,710a8.69,8.69,0,0,1-11.35-4.7h0a8.68,8.68,0,0,1,4.7-11.34l52.16-21.59a8.68,8.68,0,0,1,11.35,4.7h0a8.68,8.68,0,0,1-4.7,11.34Z" transform="translate(-59.99 -51.39)"/><path class="cls-15" d="M221,680.4c-.21,3.17-2.86,4.39-5.28,2.18s-4.82-1.15-5.28,2.18-2.6,4.22-5.28,2.19-5-1-5.28,2.18-2.79,4.23-5.28,2.18-4.84-1-5.28,2.18" transform="translate(-59.99 -51.39)"/><path class="cls-15" d="M189.46,693.44c-.21,3.18-2.86,4.39-5.28,2.18s-4.82-1.15-5.28,2.18-2.6,4.22-5.28,2.19-5-1-5.28,2.18" transform="translate(-59.99 -51.39)"/><path class="cls-29" d="M461.14,612.24a32.36,32.36,0,0,0,59.54-25Z" transform="translate(-59.99 -51.39)"/><path class="cls-30" d="M507.77,623.09a32.37,32.37,0,0,1-40.45-13.45l-6.18,2.6a32.38,32.38,0,0,0,52.76,7.44A32.55,32.55,0,0,1,507.77,623.09Z" transform="translate(-59.99 -51.39)"/><path class="cls-8" d="M517.68,588.45c3.45,8.2,1.49,24.78-9.41,32.29,10.51-8,1.2-28.84,1.2-28.84Z" transform="translate(-59.99 -51.39)"/><line class="cls-31" x1="433.06" y1="514.61" x2="430.92" y2="548.32"/><line class="cls-31" x1="448.36" y1="517.55" x2="438.81" y2="545"/><path class="cls-31" d="M461.07,612.27a32.36,32.36,0,0,0,59.54-25Z" transform="translate(-59.99 -51.39)"/><line class="cls-31" x1="434.3" y1="584.39" x2="454.2" y2="576.02"/><path class="cls-29" d="M62.14,612.24a32.36,32.36,0,0,0,59.54-25Z" transform="translate(-59.99 -51.39)"/><path class="cls-30" d="M108.77,623.09a32.37,32.37,0,0,1-40.45-13.45l-6.18,2.6a32.38,32.38,0,0,0,52.76,7.44A32.55,32.55,0,0,1,108.77,623.09Z" transform="translate(-59.99 -51.39)"/><path class="cls-8" d="M118.68,588.45c3.45,8.2,1.49,24.78-9.41,32.29,10.51-8,1.2-28.84,1.2-28.84Z" transform="translate(-59.99 -51.39)"/><line class="cls-31" x1="34.06" y1="514.61" x2="31.92" y2="548.32"/><line class="cls-31" x1="49.36" y1="517.55" x2="39.81" y2="545"/><path class="cls-31" d="M62.07,612.27a32.36,32.36,0,0,0,59.54-25Z" transform="translate(-59.99 -51.39)"/><line class="cls-31" x1="35.3" y1="584.39" x2="55.2" y2="576.02"/><path class="cls-29" d="M861.14,612.24a32.36,32.36,0,0,0,59.54-25Z" transform="translate(-59.99 -51.39)"/><path class="cls-30" d="M907.77,623.09a32.37,32.37,0,0,1-40.45-13.45l-6.18,2.6a32.38,32.38,0,0,0,52.76,7.44A32.55,32.55,0,0,1,907.77,623.09Z" transform="translate(-59.99 -51.39)"/><path class="cls-8" d="M917.68,588.45c3.45,8.2,1.49,24.78-9.41,32.29,10.51-8,1.2-28.84,1.2-28.84Z" transform="translate(-59.99 -51.39)"/><line class="cls-31" x1="833.06" y1="514.61" x2="830.92" y2="548.32"/><line class="cls-31" x1="848.36" y1="517.55" x2="838.81" y2="545"/><path class="cls-31" d="M861.07,612.27a32.36,32.36,0,0,0,59.54-25Z" transform="translate(-59.99 -51.39)"/><line class="cls-31" x1="834.3" y1="584.39" x2="854.2" y2="576.02"/><path class="cls-12" d="M818.73,82.66h0a24,24,0,1,0-44.2,18.72h0Z" transform="translate(-59.99 -51.39)"/><path class="cls-21" d="M833.23,101.5a5,5,0,0,1-2.65,6.55l-46,19.5A5,5,0,0,1,778,124.9h0a5,5,0,0,1,2.65-6.55l46-19.5a5,5,0,0,1,6.55,2.65Z" transform="translate(-59.99 -51.39)"/><path class="cls-21" d="M774.36,111.23a5,5,0,0,0-.28,4.46h0a5,5,0,0,0,6.55,2.65l46-19.5a5,5,0,0,0,2.65-6.55h0a5,5,0,0,0-4.62-3.05" transform="translate(-59.99 -51.39)"/><path class="cls-22" d="M826.43,95.66l-46,19.5a5,5,0,0,1-6.54-2.63,5,5,0,0,0,6.79,5.79l46-19.5a5,5,0,0,0,2.65-6.55v0A5,5,0,0,1,826.43,95.66Z" transform="translate(-59.99 -51.39)"/><path class="cls-11" d="M830.57,108.05l1.44,4.82a3.67,3.67,0,0,1-2,4.1l-38.67,16.38a3.74,3.74,0,0,1-4.45-1.37l-2.42-4.41" transform="translate(-59.99 -51.39)"/><polygon class="cls-23" points="757.44 58.97 759.29 58.19 757.79 58.09 757.44 58.97"/><polygon class="cls-24" points="743.67 57.2 743.67 57.2 757.79 58.09 757.79 58.09 759.29 58.19 761.52 58.33 762.05 57.02 765.75 47.81 743.67 57.2"/><path class="cls-22" d="M831.27,104.5,822,108.41l-.53,1.31-2.23-.14-1.85.78.35-.88-14.12-.89-4.6,2,11.75,2.62L785.23,124a5,5,0,0,1-6.86-3.7,5,5,0,0,0,6.19,7.24l31.28-13.25h0L830.59,108a5,5,0,0,0,3-5.51A5,5,0,0,1,831.27,104.5Z" transform="translate(-59.99 -51.39)"/><polygon class="cls-22" points="757.79 58.09 743.67 57.2 743.67 57.2 757.79 58.09 757.79 58.09"/><path class="cls-7" d="M774.53,101.39c-1.84.78-6.77,8.69-.17,9.85,3.79.45,5.11-5.25,6.26-5.74s7.08,1.17,12.55-1.15S800,97.11,802.66,96s6.28,1.68,8.93.56,3.65-3.72,6.59-5,9.21-1.87,8.43-5.74-7.87-3.18-7.87-3.18" transform="translate(-59.99 -51.39)"/><circle class="cls-25" cx="802.22" cy="74.45" r="1" transform="translate(-25.48 267.43) rotate(-22.96)"/><circle class="cls-25" cx="797.48" cy="78.63" r="1" transform="translate(-27.49 265.91) rotate(-22.96)"/><circle class="cls-25" cx="790.41" cy="77.28" r="1" transform="translate(-27.52 263.04) rotate(-22.96)"/><circle class="cls-25" cx="789.05" cy="84.37" r="1" transform="translate(-30.39 263.08) rotate(-22.96)"/><circle class="cls-25" cx="781.96" cy="83.03" r="1" transform="translate(-30.43 260.2) rotate(-22.96)"/><polygon class="cls-26" points="724.53 76.17 726.47 79.69 771.78 60.49 770.64 56.64 724.53 76.17"/><path class="cls-27" d="M818.18,91.59a8.49,8.49,0,0,0-2.35,1.53l6.88-3C821.12,90.68,819.37,91.08,818.18,91.59Z" transform="translate(-59.99 -51.39)"/><path class="cls-27" d="M780.63,105.5c-.73.31-1.52,2.69-3,4.29l9.61-4.2C784,105.74,781.36,105.19,780.63,105.5Z" transform="translate(-59.99 -51.39)"/><path class="cls-27" d="M802.67,96c-1.65.7-2.8,2.87-4.76,5l10.16-4.44C806.2,96.05,804.26,95.31,802.67,96Z" transform="translate(-59.99 -51.39)"/><path class="cls-28" d="M818.73,82.66h0a24,24,0,1,0-44.2,18.72h0Z" transform="translate(-59.99 -51.39)"/><path class="cls-28" d="M833.23,101.5a5,5,0,0,1-2.65,6.55l-46,19.5A5,5,0,0,1,778,124.9h0a5,5,0,0,1,2.65-6.55l46-19.5a5,5,0,0,1,6.55,2.65Z" transform="translate(-59.99 -51.39)"/><path class="cls-28" d="M824.71,89.24a5,5,0,0,1,4.62,3.05h0a5,5,0,0,1-2.65,6.55" transform="translate(-59.99 -51.39)"/><path class="cls-28" d="M780.63,118.35a5,5,0,0,1-6.55-2.65h0a5,5,0,0,1,.28-4.46" transform="translate(-59.99 -51.39)"/><path class="cls-28" d="M830.57,108.05l1.44,4.82a3.67,3.67,0,0,1-2,4.1l-38.67,16.38a3.74,3.74,0,0,1-4.45-1.37l-2.42-4.41" transform="translate(-59.99 -51.39)"/><polyline class="cls-28" points="743.67 57.2 761.52 58.33 765.75 47.81"/><path class="cls-28" d="M774.53,101.39c-1.84.78-6.77,8.69-.17,9.85,3.79.45,5.11-5.25,6.26-5.74s7.08,1.17,12.55-1.15S800,97.11,802.66,96s6.28,1.68,8.93.56,3.65-3.72,6.59-5,9.21-1.87,8.43-5.74-7.87-3.18-7.87-3.18" transform="translate(-59.99 -51.39)"/><circle class="cls-28" cx="802.22" cy="74.45" r="1" transform="translate(-25.48 267.43) rotate(-22.96)"/><circle class="cls-28" cx="797.48" cy="78.63" r="1" transform="translate(-27.49 265.91) rotate(-22.96)"/><circle class="cls-28" cx="790.41" cy="77.28" r="1" transform="translate(-27.52 263.04) rotate(-22.96)"/><circle class="cls-28" cx="789.05" cy="84.37" r="1" transform="translate(-30.39 263.08) rotate(-22.96)"/><circle class="cls-28" cx="781.96" cy="83.03" r="1" transform="translate(-30.43 260.2) rotate(-22.96)"/><path class="cls-29" d="M862.14,213.26a32.36,32.36,0,0,0,59.54-25Z" transform="translate(-59.99 -51.39)"/><path class="cls-30" d="M908.77,224.11a32.37,32.37,0,0,1-40.45-13.45l-6.18,2.6a32.38,32.38,0,0,0,52.76,7.44A32.55,32.55,0,0,1,908.77,224.11Z" transform="translate(-59.99 -51.39)"/><path class="cls-8" d="M918.68,189.47c3.45,8.2,1.49,24.78-9.41,32.29,10.51-8,1.2-28.84,1.2-28.84Z" transform="translate(-59.99 -51.39)"/><line class="cls-31" x1="834.06" y1="115.63" x2="831.92" y2="149.34"/><line class="cls-31" x1="849.36" y1="118.57" x2="839.81" y2="146.02"/><path class="cls-31" d="M862.07,213.29a32.36,32.36,0,0,0,59.54-25Z" transform="translate(-59.99 -51.39)"/><line class="cls-31" x1="835.3" y1="185.41" x2="855.2" y2="177.04"/><path class="cls-29" d="M660.46,391.92a32.36,32.36,0,0,0,59.54-25Z" transform="translate(-59.99 -51.39)"/><path class="cls-30" d="M707.09,402.76a32.37,32.37,0,0,1-40.45-13.45l-6.18,2.6a32.38,32.38,0,0,0,52.76,7.44A32.55,32.55,0,0,1,707.09,402.76Z" transform="translate(-59.99 -51.39)"/><path class="cls-8" d="M717,368.13c3.45,8.2,1.49,24.78-9.41,32.29,10.51-8,1.2-28.84,1.2-28.84Z" transform="translate(-59.99 -51.39)"/><line class="cls-31" x1="632.38" y1="294.28" x2="630.24" y2="328"/><line class="cls-31" x1="647.68" y1="297.22" x2="638.14" y2="324.68"/><path class="cls-31" d="M660.39,391.94a32.36,32.36,0,0,0,59.54-25Z" transform="translate(-59.99 -51.39)"/><line class="cls-31" x1="633.62" y1="364.07" x2="653.53" y2="355.7"/><path class="cls-29" d="M261.46,391.92a32.36,32.36,0,0,0,59.54-25Z" transform="translate(-59.99 -51.39)"/><path class="cls-30" d="M308.09,402.76a32.37,32.37,0,0,1-40.45-13.45l-6.18,2.6a32.38,32.38,0,0,0,52.76,7.44A32.55,32.55,0,0,1,308.09,402.76Z" transform="translate(-59.99 -51.39)"/><path class="cls-8" d="M318,368.13c3.45,8.2,1.49,24.78-9.41,32.29,10.51-8,1.2-28.84,1.2-28.84Z" transform="translate(-59.99 -51.39)"/><line class="cls-31" x1="233.38" y1="294.28" x2="231.24" y2="328"/><line class="cls-31" x1="248.68" y1="297.22" x2="239.14" y2="324.68"/><path class="cls-31" d="M261.39,391.94a32.36,32.36,0,0,0,59.54-25Z" transform="translate(-59.99 -51.39)"/><line class="cls-31" x1="234.62" y1="364.07" x2="254.53" y2="355.7"/><path class="cls-32" d="M424.05,276.65a7.88,7.88,0,0,0-15.42-2.74,14.67,14.67,0,0,0-26.69,11.56,6.76,6.76,0,0,0-5.42,9.84l.06.09a9.74,9.74,0,0,0-1.07.42,10.16,10.16,0,1,0,10.56,17.25,6.75,6.75,0,0,0,11.34-3.28l0,0-4-6.21a14.61,14.61,0,0,0,11.83-10.67,14.76,14.76,0,0,0,9.12,2.71h0l1.46,5.12a7.88,7.88,0,0,0,12.47-6.77c.25-.1.5-.17.74-.29a9,9,0,0,0-5-17Z" transform="translate(-59.99 -51.39)"/><path class="cls-33" d="M428.55,290.1c-.24.12-.49.19-.74.29a7.88,7.88,0,0,1-12.47,6.77L413.88,292h0a14.75,14.75,0,0,1-9.12-2.71A14.62,14.62,0,0,1,392.94,300a11.75,11.75,0,0,1-8.4-.93c3.88,4.53,3.81,8.24,1,10.44a10.07,10.07,0,0,1-15.52-5A10,10,0,0,0,386.11,313a6.75,6.75,0,0,0,11.34-3.28l0,0-1.2-1.86,0,0-2.81-4.35,1.54-.37a14.52,14.52,0,0,0,10.31-10.33,14.76,14.76,0,0,0,9.12,2.71h0l1.46,5.12a7.88,7.88,0,0,0,12.47-6.77c.25-.1.5-.17.74-.29a9,9,0,0,0,4.34-11.15A9,9,0,0,1,428.55,290.1Z" transform="translate(-59.99 -51.39)"/><path class="cls-34" d="M405.27,292.88a14.61,14.61,0,0,1-11.83,10.67l4,6.21,8.7,13.47L420.21,316l-4.36-15.27-1.46-5.12h0A14.76,14.76,0,0,1,405.27,292.88Z" transform="translate(-59.99 -51.39)"/><path class="cls-35" d="M414.4,295.58a14.76,14.76,0,0,1-9.12-2.71,14.61,14.61,0,0,1-11.83,10.67l4,6.21,8.7,13.47,3.4-1.75c-2.89-4.84-7-11.75-9-15.2a18.42,18.42,0,0,0,6.93-7.91c3.32,2.69,7.86,2.73,8.33,2.35l-1.46-5.12Z" transform="translate(-59.99 -51.39)"/><polyline class="cls-36" points="333.54 252.27 346.21 271.94 360.26 264.7 354.44 244.31"/><line class="cls-36" x1="343.97" y1="252.78" x2="352.23" y2="268.84"/><path class="cls-36" d="M388.42,303.59A14.65,14.65,0,0,0,405.31,293a14.67,14.67,0,0,0,15.22,1.1" transform="translate(-59.99 -51.39)"/><path class="cls-36" d="M415.88,300.8a7.88,7.88,0,0,0,12.5-6.75c.25-.1.5-.17.74-.29a9,9,0,0,0-5-17A7.88,7.88,0,0,0,408.69,274,14.67,14.67,0,0,0,382,285.56a6.76,6.76,0,0,0-5.42,9.84l.06.09a9.72,9.72,0,0,0-1.07.42,10.16,10.16,0,1,0,10.56,17.25,6.75,6.75,0,0,0,11.34-3.28" transform="translate(-59.99 -51.39)"/><path class="cls-1" d="M591.33,99l11.12,27,2.62-1.08c8.11-3.34,12.87-14.77,18.27-17l-4.45-10.8c-5.4,2.22-16.84-2.54-24.94.8l-41.85,17.23c-2.24.92-3.12,3.92.2,12l2.62,6.37c3.49,8.48,6.06,9.57,8.3,8.65l9.52-3.92-11.12-27Z" transform="translate(-59.99 -51.39)"/><rect class="cls-2" x="620.56" y="93.9" width="14.6" height="11.68" transform="translate(-50.68 195.15) rotate(-22.38)"/><rect class="cls-3" x="621.9" y="100.82" width="14.6" height="4.38" transform="translate(-51.82 195.91) rotate(-22.38)"/><rect class="cls-4" x="619.17" y="94.18" width="14.6" height="4.38" transform="translate(-49.5 194.37) rotate(-22.38)"/><rect class="cls-5" x="565.96" y="104.02" width="32.14" height="29.2" transform="translate(-61.32 179.12) rotate(-22.38)"/><path class="cls-6" d="M622.17,105.11l-.56-1.35c-5.4,2.22-12.39,8.25-20.5,11.59l-2.62,1.08,2.23,5.41,2.62-1.08C611.45,117.42,616.77,107.34,622.17,105.11Z" transform="translate(-59.99 -51.39)"/><path class="cls-6" d="M556.57,133.69a3.3,3.3,0,0,1-1.33.27c2.75,5.47,4.35,4.81,6.26,4l9.52-3.92-2.23-5.41Z" transform="translate(-59.99 -51.39)"/><path class="cls-7" d="M554.32,120.55l9.52-3.92-2.23-5.4L591.33,99l2.23,5.4,2.62-1.08c8.11-3.34,19,.08,24.39-2.15l-1.67-4.05c-5.4,2.22-16.84-2.54-24.94.8l-41.85,17.23c-2.24.92-3.12,3.92.2,12l1.67,4.06C550.64,123.13,552.08,121.48,554.32,120.55Z" transform="translate(-59.99 -51.39)"/><rect class="cls-8" x="570.08" y="124.85" width="32.14" height="7.55" transform="translate(-64.82 181.44) rotate(-22.38)"/><rect class="cls-9" x="561.51" y="104.89" width="32.14" height="5.84" transform="translate(-57.54 176.62) rotate(-22.38)"/><rect class="cls-10" x="620.56" y="93.9" width="14.6" height="11.68" transform="translate(-50.68 195.15) rotate(-22.38)"/><path class="cls-10" d="M561.55,111.26l-9.46,3.89c-2.24.92-3.12,3.92.2,12l2.62,6.37c3.49,8.47,6.06,9.57,8.3,8.65l9.46-3.89" transform="translate(-59.99 -51.39)"/><path class="cls-10" d="M618.88,97.12c-5.4,2.22-16.84-2.54-24.94.8L591.27,99l11.12,27,2.67-1.1c8.11-3.34,12.87-14.77,18.27-17" transform="translate(-59.99 -51.39)"/><rect class="cls-10" x="565.9" y="104.04" width="32.14" height="29.2" transform="translate(-61.33 179.1) rotate(-22.38)"/><path class="cls-16" d="M680.93,232.61a7.63,7.63,0,0,0,1.26-.55Z" transform="translate(-59.99 -51.39)"/><path class="cls-16" d="M730.86,189.81c-3.67-6.82-11.18-11.89-23.51-7.43s-15.42,15.39-17,28.52c-.8,6.75-1.91,12.21-3.75,16h0a11,11,0,0,1-4.45,5.14L737.35,208S734.54,196.63,730.86,189.81Z" transform="translate(-59.99 -51.39)"/><path class="cls-17" d="M707.36,182.38a24.34,24.34,0,0,1,10.21-1.62h0c1.3-4.4-3.86-7.55-7.74-4.93s-8.87.34-8.87.34c-3.7-1.18-8.84.71-9.1,5.43s.5,6.06-2.27,8.21c-1.85,1.44-7.81,1.51-5.74,6.92,1.76,4.63-.21,6.58-2.63,7.87-3.79,2-4.2,5-2.63,7.61s5,4.17,2.82,7.35c-1.16,1.7-2.4,6.29,5.23,7.36,1.84-3.81,3-9.27,3.75-16C691.95,197.78,695,186.84,707.36,182.38Z" transform="translate(-59.99 -51.39)"/><path class="cls-18" d="M681.4,219.56c2.16-3.18-1.25-4.73-2.82-7.35s-1.16-5.59,2.62-7.6c2.42-1.29,4.39-3.24,2.63-7.87-2.06-5.41,3.89-5.48,5.74-6.92,2.77-2.15,2-3.49,2.28-8.22a5.83,5.83,0,0,1,3.77-5.16h0a9.78,9.78,0,0,0-8.31,2,49.07,49.07,0,0,0-18.2,38.67c0,8.78,1.14,15.92,9.1,15.92,3.87,0,6.53-2.18,8.43-6.11C679,225.86,680.24,221.27,681.4,219.56Z" transform="translate(-59.99 -51.39)"/><path class="cls-19" d="M686.78,191.3c.2-.16.39-.31.56-.46a8.8,8.8,0,0,0-2.92,1.55A9.7,9.7,0,0,0,686.78,191.3Z" transform="translate(-59.99 -51.39)"/><path class="cls-19" d="M678.35,207.11a6.36,6.36,0,0,0,2.19-2.13A6.55,6.55,0,0,0,678.35,207.11Z" transform="translate(-59.99 -51.39)"/><path class="cls-19" d="M695.61,176.44a11.59,11.59,0,0,0-1.33-.15,6.56,6.56,0,0,0-5,6c-.27,4.85.44,6.46-1.95,8.57a9.35,9.35,0,0,0,2.23-1c2.77-2.15,2-3.49,2.28-8.22a5.83,5.83,0,0,1,3.77-5.16Z" transform="translate(-59.99 -51.39)"/><path class="cls-19" d="M680.46,198.91c1.06,2.79.89,4.69.08,6.08.21-.13.43-.26.66-.38,2.42-1.29,4.39-3.24,2.63-7.87-.82-2.16-.36-3.46.59-4.34C681.86,193.35,678.8,194.55,680.46,198.91Z" transform="translate(-59.99 -51.39)"/><path class="cls-19" d="M674.69,215.93c1.73,2.89,5.48,4.59,3.1,8.09-1.21,1.78-2.49,6.44,4.64,7.9.36.07-.4-.06,0,0a8,8,0,0,0,1.84-1.46,13.65,13.65,0,0,0,2.36-3.52c-.41-.06-.78-.13-1.14-.21-6.34-1.35-5.18-5.55-4.09-7.16,2.16-3.18-1.25-4.73-2.82-7.35a4.77,4.77,0,0,1-.22-5.1q-.38.24-.78.45C673.41,209.79,673,213,674.69,215.93Z" transform="translate(-59.99 -51.39)"/><path class="cls-20" d="M680.91,232.62,737.35,208s-2.81-11.38-6.49-18.2-11.18-11.89-23.51-7.43-15.42,15.39-17,28.52C688.77,224.61,685.83,233,678.2,233c-8,0-9.1-7.15-9.1-15.92a49.07,49.07,0,0,1,18.2-38.67,9.79,9.79,0,0,1,8.31-2" transform="translate(-59.99 -51.39)"/><path class="cls-20" d="M686.64,226.93c-7.64-1.07-6.39-5.66-5.23-7.37,2.16-3.18-1.25-4.73-2.82-7.35s-1.16-5.59,2.62-7.61c2.42-1.29,4.39-3.24,2.63-7.87-2.06-5.41,3.89-5.48,5.74-6.92,2.77-2.15,2-3.49,2.28-8.21s5.4-6.61,9.1-5.43c0,0,5,2.27,8.87-.34s9,.54,7.74,4.93" transform="translate(-59.99 -51.39)"/><path class="cls-16" d="M878.93,413.61a7.63,7.63,0,0,0,1.26-.55Z" transform="translate(-59.99 -51.39)"/><path class="cls-16" d="M928.86,370.81c-3.67-6.82-11.18-11.89-23.51-7.43s-15.42,15.39-17,28.52c-.8,6.75-1.91,12.21-3.75,16h0a11,11,0,0,1-4.45,5.14L935.35,389S932.54,377.63,928.86,370.81Z" transform="translate(-59.99 -51.39)"/><path class="cls-17" d="M905.36,363.38a24.34,24.34,0,0,1,10.21-1.62h0c1.3-4.4-3.86-7.55-7.74-4.93s-8.87.34-8.87.34c-3.7-1.18-8.84.71-9.1,5.43s.5,6.06-2.27,8.21c-1.85,1.44-7.81,1.51-5.74,6.92,1.76,4.63-.21,6.58-2.63,7.87-3.79,2-4.2,5-2.63,7.61s5,4.17,2.82,7.35c-1.16,1.7-2.4,6.29,5.23,7.36,1.84-3.81,3-9.27,3.75-16C889.95,378.78,893,367.84,905.36,363.38Z" transform="translate(-59.99 -51.39)"/><path class="cls-18" d="M879.4,400.56c2.16-3.18-1.25-4.73-2.82-7.35s-1.16-5.59,2.62-7.6c2.42-1.29,4.39-3.24,2.63-7.87-2.06-5.41,3.89-5.48,5.74-6.92,2.77-2.15,2-3.49,2.28-8.22a5.83,5.83,0,0,1,3.77-5.16h0a9.78,9.78,0,0,0-8.31,2,49.07,49.07,0,0,0-18.2,38.67c0,8.78,1.14,15.92,9.1,15.92,3.87,0,6.53-2.18,8.43-6.11C877,406.86,878.24,402.27,879.4,400.56Z" transform="translate(-59.99 -51.39)"/><path class="cls-19" d="M884.78,372.3c.2-.16.39-.31.56-.46a8.8,8.8,0,0,0-2.92,1.55A9.7,9.7,0,0,0,884.78,372.3Z" transform="translate(-59.99 -51.39)"/><path class="cls-19" d="M876.35,388.11a6.36,6.36,0,0,0,2.19-2.13A6.55,6.55,0,0,0,876.35,388.11Z" transform="translate(-59.99 -51.39)"/><path class="cls-19" d="M893.61,357.44a11.59,11.59,0,0,0-1.33-.15,6.56,6.56,0,0,0-5,6c-.27,4.85.44,6.46-1.95,8.57a9.35,9.35,0,0,0,2.23-1c2.77-2.15,2-3.49,2.28-8.22a5.83,5.83,0,0,1,3.77-5.16Z" transform="translate(-59.99 -51.39)"/><path class="cls-19" d="M878.46,379.91c1.06,2.79.89,4.69.08,6.08.21-.13.43-.26.66-.38,2.42-1.29,4.39-3.24,2.63-7.87-.82-2.16-.36-3.46.59-4.34C879.86,374.35,876.8,375.55,878.46,379.91Z" transform="translate(-59.99 -51.39)"/><path class="cls-19" d="M872.69,396.93c1.73,2.89,5.48,4.59,3.1,8.09-1.21,1.78-2.49,6.44,4.64,7.9.36.07-.4-.06,0,0a8,8,0,0,0,1.84-1.46,13.65,13.65,0,0,0,2.36-3.52c-.41-.06-.78-.13-1.14-.21-6.34-1.35-5.18-5.55-4.09-7.16,2.16-3.18-1.25-4.73-2.82-7.35a4.77,4.77,0,0,1-.22-5.1q-.38.24-.78.45C871.41,390.79,871,394,872.69,396.93Z" transform="translate(-59.99 -51.39)"/><path class="cls-20" d="M878.91,413.62,935.35,389s-2.81-11.38-6.49-18.2-11.18-11.89-23.51-7.43-15.42,15.39-17,28.52C886.77,405.61,883.83,414,876.2,414c-8,0-9.1-7.15-9.1-15.92a49.07,49.07,0,0,1,18.2-38.67,9.79,9.79,0,0,1,8.31-2" transform="translate(-59.99 -51.39)"/><path class="cls-20" d="M884.64,407.93c-7.64-1.07-6.39-5.66-5.23-7.37,2.16-3.18-1.25-4.73-2.82-7.35s-1.16-5.59,2.62-7.61c2.42-1.29,4.39-3.24,2.63-7.87-2.06-5.41,3.89-5.48,5.74-6.92,2.77-2.15,2-3.49,2.28-8.21s5.4-6.61,9.1-5.43c0,0,5,2.27,8.87-.34s9,.54,7.74,4.93" transform="translate(-59.99 -51.39)"/><path class="cls-16" d="M78.93,413.61a7.63,7.63,0,0,0,1.26-.55Z" transform="translate(-59.99 -51.39)"/><path class="cls-16" d="M128.86,370.81c-3.67-6.82-11.18-11.89-23.51-7.43s-15.42,15.39-17,28.52c-.8,6.75-1.91,12.21-3.75,16h0a11,11,0,0,1-4.45,5.14L135.35,389S132.54,377.63,128.86,370.81Z" transform="translate(-59.99 -51.39)"/><path class="cls-17" d="M105.36,363.38a24.34,24.34,0,0,1,10.21-1.62h0c1.3-4.4-3.86-7.55-7.74-4.93s-8.87.34-8.87.34c-3.7-1.18-8.84.71-9.1,5.43s.5,6.06-2.27,8.21c-1.85,1.44-7.81,1.51-5.74,6.92,1.76,4.63-.21,6.58-2.63,7.87-3.79,2-4.2,5-2.63,7.61s5,4.17,2.82,7.35c-1.16,1.7-2.4,6.29,5.23,7.36,1.84-3.81,3-9.27,3.75-16C89.95,378.78,93,367.84,105.36,363.38Z" transform="translate(-59.99 -51.39)"/><path class="cls-18" d="M79.4,400.56c2.16-3.18-1.25-4.73-2.82-7.35s-1.16-5.59,2.62-7.6c2.42-1.29,4.39-3.24,2.63-7.87-2.06-5.41,3.89-5.48,5.74-6.92,2.77-2.15,2-3.49,2.28-8.22a5.83,5.83,0,0,1,3.77-5.16h0a9.78,9.78,0,0,0-8.31,2,49.07,49.07,0,0,0-18.2,38.67c0,8.78,1.14,15.92,9.1,15.92,3.87,0,6.53-2.18,8.43-6.11C77,406.86,78.24,402.27,79.4,400.56Z" transform="translate(-59.99 -51.39)"/><path class="cls-19" d="M84.78,372.3c.2-.16.39-.31.56-.46a8.8,8.8,0,0,0-2.92,1.55A9.7,9.7,0,0,0,84.78,372.3Z" transform="translate(-59.99 -51.39)"/><path class="cls-19" d="M76.35,388.11A6.36,6.36,0,0,0,78.54,386,6.55,6.55,0,0,0,76.35,388.11Z" transform="translate(-59.99 -51.39)"/><path class="cls-19" d="M93.61,357.44a11.59,11.59,0,0,0-1.33-.15,6.56,6.56,0,0,0-5,6c-.27,4.85.44,6.46-1.95,8.57a9.35,9.35,0,0,0,2.23-1c2.77-2.15,2-3.49,2.28-8.22a5.83,5.83,0,0,1,3.77-5.16Z" transform="translate(-59.99 -51.39)"/><path class="cls-19" d="M78.46,379.91c1.06,2.79.89,4.69.08,6.08.21-.13.43-.26.66-.38,2.42-1.29,4.39-3.24,2.63-7.87-.82-2.16-.36-3.46.59-4.34C79.86,374.35,76.8,375.55,78.46,379.91Z" transform="translate(-59.99 -51.39)"/><path class="cls-19" d="M72.69,396.93c1.73,2.89,5.48,4.59,3.1,8.09-1.21,1.78-2.49,6.44,4.64,7.9.36.07-.4-.06,0,0a8,8,0,0,0,1.84-1.46,13.65,13.65,0,0,0,2.36-3.52c-.41-.06-.78-.13-1.14-.21-6.34-1.35-5.18-5.55-4.09-7.16,2.16-3.18-1.25-4.73-2.82-7.35a4.77,4.77,0,0,1-.22-5.1q-.38.24-.78.45C71.41,390.79,71,394,72.69,396.93Z" transform="translate(-59.99 -51.39)"/><path class="cls-20" d="M78.91,413.62,135.35,389s-2.81-11.38-6.49-18.2-11.18-11.89-23.51-7.43-15.42,15.39-17,28.52C86.77,405.61,83.83,414,76.2,414c-8,0-9.1-7.15-9.1-15.92a49.07,49.07,0,0,1,18.2-38.67,9.79,9.79,0,0,1,8.31-2" transform="translate(-59.99 -51.39)"/><path class="cls-20" d="M84.64,407.93c-7.64-1.07-6.39-5.66-5.23-7.37,2.16-3.18-1.25-4.73-2.82-7.35s-1.16-5.59,2.62-7.61c2.42-1.29,4.39-3.24,2.63-7.87-2.06-5.41,3.89-5.48,5.74-6.92,2.77-2.15,2-3.49,2.28-8.21s5.4-6.61,9.1-5.43c0,0,5,2.27,8.87-.34s9,.54,7.74,4.93" transform="translate(-59.99 -51.39)"/><path class="cls-32" d="M825.05,276.65a7.88,7.88,0,0,0-15.42-2.74,14.67,14.67,0,0,0-26.69,11.56,6.76,6.76,0,0,0-5.42,9.84l.06.09a9.74,9.74,0,0,0-1.07.42,10.16,10.16,0,1,0,10.56,17.25,6.75,6.75,0,0,0,11.34-3.28l0,0-4-6.21a14.61,14.61,0,0,0,11.83-10.67,14.76,14.76,0,0,0,9.12,2.71h0l1.46,5.12a7.88,7.88,0,0,0,12.47-6.77c.25-.1.5-.17.74-.29a9,9,0,0,0-5-17Z" transform="translate(-59.99 -51.39)"/><path class="cls-33" d="M829.55,290.1c-.24.12-.49.19-.74.29a7.88,7.88,0,0,1-12.47,6.77L814.88,292h0a14.75,14.75,0,0,1-9.12-2.71A14.62,14.62,0,0,1,793.94,300a11.75,11.75,0,0,1-8.4-.93c3.88,4.53,3.81,8.24,1,10.44a10.07,10.07,0,0,1-15.52-5A10,10,0,0,0,787.11,313a6.75,6.75,0,0,0,11.34-3.28l0,0-1.2-1.86,0,0-2.81-4.35,1.54-.37a14.52,14.52,0,0,0,10.31-10.33,14.76,14.76,0,0,0,9.12,2.71h0l1.46,5.12a7.88,7.88,0,0,0,12.47-6.77c.25-.1.5-.17.74-.29a9,9,0,0,0,4.34-11.15A9,9,0,0,1,829.55,290.1Z" transform="translate(-59.99 -51.39)"/><path class="cls-34" d="M806.27,292.88a14.61,14.61,0,0,1-11.83,10.67l4,6.21,8.7,13.47L821.21,316l-4.36-15.27-1.46-5.12h0A14.76,14.76,0,0,1,806.27,292.88Z" transform="translate(-59.99 -51.39)"/><path class="cls-35" d="M815.4,295.58a14.76,14.76,0,0,1-9.12-2.71,14.61,14.61,0,0,1-11.83,10.67l4,6.21,8.7,13.47,3.4-1.75c-2.89-4.84-7-11.75-9-15.2a18.42,18.42,0,0,0,6.93-7.91c3.32,2.69,7.86,2.73,8.33,2.35l-1.46-5.12Z" transform="translate(-59.99 -51.39)"/><polyline class="cls-36" points="734.54 252.27 747.21 271.94 761.26 264.7 755.44 244.31"/><line class="cls-36" x1="744.97" y1="252.78" x2="753.23" y2="268.84"/><path class="cls-36" d="M789.42,303.59A14.65,14.65,0,0,0,806.31,293a14.67,14.67,0,0,0,15.22,1.1" transform="translate(-59.99 -51.39)"/><path class="cls-36" d="M816.88,300.8a7.88,7.88,0,0,0,12.5-6.75c.25-.1.5-.17.74-.29a9,9,0,0,0-5-17A7.88,7.88,0,0,0,809.69,274,14.67,14.67,0,0,0,783,285.56a6.76,6.76,0,0,0-5.42,9.84l.06.09a9.72,9.72,0,0,0-1.07.42,10.16,10.16,0,1,0,10.56,17.25,6.75,6.75,0,0,0,11.34-3.28" transform="translate(-59.99 -51.39)"/><path class="cls-1" d="M590.31,499l11.12,27,2.62-1.08c8.11-3.34,12.87-14.77,18.27-17l-4.45-10.8c-5.4,2.22-16.84-2.54-24.94.8l-41.85,17.23c-2.24.92-3.12,3.92.2,12l2.62,6.37c3.49,8.48,6.06,9.57,8.3,8.65l9.52-3.92-11.12-27Z" transform="translate(-59.99 -51.39)"/><rect class="cls-2" x="619.54" y="493.89" width="14.6" height="11.68" transform="translate(-203.04 224.88) rotate(-22.38)"/><rect class="cls-3" x="620.89" y="500.8" width="14.6" height="4.38" transform="translate(-204.18 225.64) rotate(-22.38)"/><rect class="cls-4" x="618.16" y="494.17" width="14.6" height="4.38" transform="translate(-201.86 224.1) rotate(-22.38)"/><rect class="cls-5" x="564.94" y="504" width="32.14" height="29.2" transform="translate(-213.67 208.86) rotate(-22.38)"/><path class="cls-6" d="M621.16,505.1l-.56-1.35c-5.4,2.22-12.39,8.25-20.5,11.59l-2.62,1.08,2.23,5.41,2.62-1.08C610.44,517.41,615.76,507.32,621.16,505.1Z" transform="translate(-59.99 -51.39)"/><path class="cls-6" d="M555.55,533.68a3.3,3.3,0,0,1-1.33.27c2.75,5.47,4.35,4.81,6.26,4l9.52-3.92-2.23-5.41Z" transform="translate(-59.99 -51.39)"/><path class="cls-7" d="M553.3,520.54l9.52-3.92-2.23-5.4L590.31,499l2.23,5.4,2.62-1.08c8.11-3.34,19,.08,24.39-2.15l-1.67-4.05c-5.4,2.22-16.84-2.54-24.94.8l-41.85,17.23c-2.24.92-3.12,3.92.2,12l1.67,4.06C549.63,523.12,551.07,521.46,553.3,520.54Z" transform="translate(-59.99 -51.39)"/><rect class="cls-8" x="569.06" y="524.83" width="32.14" height="7.55" transform="translate(-217.17 211.18) rotate(-22.38)"/><rect class="cls-9" x="560.5" y="504.88" width="32.14" height="5.84" transform="translate(-209.89 206.35) rotate(-22.38)"/><rect class="cls-10" x="619.54" y="493.89" width="14.6" height="11.68" transform="translate(-203.03 224.88) rotate(-22.38)"/><path class="cls-10" d="M560.54,511.24l-9.46,3.89c-2.24.92-3.12,3.92.2,12l2.62,6.37c3.49,8.47,6.06,9.57,8.3,8.65l9.46-3.89" transform="translate(-59.99 -51.39)"/><path class="cls-10" d="M617.87,497.11c-5.4,2.22-16.84-2.54-24.94.8l-2.67,1.1,11.12,27,2.67-1.1c8.11-3.34,12.87-14.77,18.27-17" transform="translate(-59.99 -51.39)"/><rect class="cls-10" x="564.88" y="504.03" width="32.14" height="29.2" transform="translate(-213.68 208.84) rotate(-22.38)"/><path class="cls-16" d="M679.91,632.6a7.63,7.63,0,0,0,1.26-.55Z" transform="translate(-59.99 -51.39)"/><path class="cls-16" d="M729.84,589.8c-3.67-6.82-11.18-11.89-23.51-7.43s-15.42,15.39-17,28.52c-.8,6.75-1.91,12.21-3.75,16h0a11,11,0,0,1-4.45,5.14L736.34,608S733.52,596.62,729.84,589.8Z" transform="translate(-59.99 -51.39)"/><path class="cls-17" d="M706.35,582.37a24.34,24.34,0,0,1,10.21-1.62h0c1.3-4.4-3.86-7.55-7.74-4.93s-8.87.34-8.87.34c-3.7-1.18-8.84.71-9.1,5.43s.5,6.06-2.27,8.21c-1.85,1.44-7.81,1.51-5.74,6.92,1.76,4.63-.21,6.58-2.63,7.87-3.79,2-4.2,5-2.63,7.61s5,4.17,2.82,7.35c-1.16,1.7-2.4,6.29,5.23,7.36,1.84-3.81,3-9.27,3.75-16C690.93,597.76,694,586.83,706.35,582.37Z" transform="translate(-59.99 -51.39)"/><path class="cls-18" d="M680.38,619.55c2.16-3.18-1.25-4.73-2.82-7.35s-1.16-5.59,2.62-7.6c2.42-1.29,4.39-3.24,2.63-7.87-2.06-5.41,3.89-5.48,5.74-6.92,2.77-2.15,2-3.49,2.28-8.22a5.83,5.83,0,0,1,3.77-5.16h0a9.78,9.78,0,0,0-8.31,2,49.07,49.07,0,0,0-18.2,38.67c0,8.78,1.14,15.92,9.1,15.92,3.87,0,6.53-2.18,8.43-6.11C678,625.84,679.23,621.25,680.38,619.55Z" transform="translate(-59.99 -51.39)"/><path class="cls-19" d="M685.76,591.29c.2-.16.39-.31.56-.46a8.8,8.8,0,0,0-2.92,1.55A9.7,9.7,0,0,0,685.76,591.29Z" transform="translate(-59.99 -51.39)"/><path class="cls-19" d="M677.34,607.1a6.36,6.36,0,0,0,2.19-2.13A6.55,6.55,0,0,0,677.34,607.1Z" transform="translate(-59.99 -51.39)"/><path class="cls-19" d="M694.6,576.43a11.59,11.59,0,0,0-1.33-.15,6.56,6.56,0,0,0-5,6c-.27,4.85.44,6.46-1.95,8.57a9.35,9.35,0,0,0,2.23-1c2.77-2.15,2-3.49,2.28-8.22a5.83,5.83,0,0,1,3.77-5.16Z" transform="translate(-59.99 -51.39)"/><path class="cls-19" d="M679.45,598.9c1.06,2.79.89,4.69.08,6.08.21-.13.43-.26.66-.38,2.42-1.29,4.39-3.24,2.63-7.87-.82-2.16-.36-3.46.59-4.34C680.84,593.33,677.79,594.54,679.45,598.9Z" transform="translate(-59.99 -51.39)"/><path class="cls-19" d="M673.67,615.92c1.73,2.89,5.48,4.59,3.1,8.09-1.21,1.78-2.49,6.44,4.64,7.9.36.07-.4-.06,0,0a8,8,0,0,0,1.84-1.46,13.65,13.65,0,0,0,2.36-3.52c-.41-.06-.78-.13-1.14-.21-6.34-1.35-5.18-5.55-4.09-7.16,2.16-3.18-1.25-4.73-2.82-7.35a4.77,4.77,0,0,1-.22-5.1q-.38.24-.78.45C672.4,609.77,671.94,613,673.67,615.92Z" transform="translate(-59.99 -51.39)"/><path class="cls-20" d="M679.89,632.61,736.33,608s-2.81-11.38-6.49-18.2-11.18-11.89-23.51-7.43-15.42,15.39-17,28.52c-1.61,13.71-4.55,22.13-12.18,22.13-8,0-9.1-7.15-9.1-15.92a49.07,49.07,0,0,1,18.2-38.67,9.79,9.79,0,0,1,8.31-2" transform="translate(-59.99 -51.39)"/><path class="cls-20" d="M685.62,626.91c-7.64-1.07-6.39-5.66-5.23-7.37,2.16-3.18-1.25-4.73-2.82-7.35s-1.16-5.59,2.62-7.61c2.42-1.29,4.39-3.24,2.63-7.87-2.06-5.41,3.89-5.48,5.74-6.92,2.77-2.15,2-3.49,2.28-8.21s5.4-6.61,9.1-5.43c0,0,5,2.27,8.87-.34s9,.54,7.74,4.93" transform="translate(-59.99 -51.39)"/><path class="cls-32" d="M824,676.63a7.88,7.88,0,0,0-15.42-2.74,14.67,14.67,0,0,0-26.69,11.56,6.76,6.76,0,0,0-5.42,9.84l.06.09a9.74,9.74,0,0,0-1.07.42A10.16,10.16,0,1,0,786.07,713a6.75,6.75,0,0,0,11.34-3.28l0,0-4-6.21a14.61,14.61,0,0,0,11.83-10.67,14.76,14.76,0,0,0,9.12,2.71h0l1.46,5.12a7.88,7.88,0,0,0,12.47-6.77c.25-.1.5-.17.74-.29a9,9,0,0,0-5-17Z" transform="translate(-59.99 -51.39)"/><path class="cls-33" d="M828.53,690.09c-.24.12-.49.19-.74.29a7.88,7.88,0,0,1-12.47,6.77L813.87,692h0a14.75,14.75,0,0,1-9.12-2.71A14.62,14.62,0,0,1,792.92,700a11.75,11.75,0,0,1-8.4-.93c3.88,4.53,3.81,8.24,1,10.44a10.07,10.07,0,0,1-15.52-5A10,10,0,0,0,786.1,713a6.75,6.75,0,0,0,11.34-3.28l0,0-1.2-1.86,0,0-2.81-4.35,1.54-.37a14.52,14.52,0,0,0,10.31-10.33,14.76,14.76,0,0,0,9.12,2.71h0l1.46,5.12a7.88,7.88,0,0,0,12.47-6.77c.25-.1.5-.17.74-.29a9,9,0,0,0,4.34-11.15A9,9,0,0,1,828.53,690.09Z" transform="translate(-59.99 -51.39)"/><path class="cls-34" d="M805.26,692.86a14.61,14.61,0,0,1-11.83,10.67l4,6.21,8.7,13.47L820.2,716l-4.36-15.27-1.46-5.12h0A14.76,14.76,0,0,1,805.26,692.86Z" transform="translate(-59.99 -51.39)"/><path class="cls-35" d="M814.38,695.57a14.76,14.76,0,0,1-9.12-2.71,14.61,14.61,0,0,1-11.83,10.67l4,6.21,8.7,13.47,3.4-1.75c-2.89-4.84-7-11.75-9-15.2a18.42,18.42,0,0,0,6.93-7.91c3.32,2.69,7.86,2.73,8.33,2.35l-1.46-5.12Z" transform="translate(-59.99 -51.39)"/><polyline class="cls-36" points="733.53 652.25 746.2 671.92 760.25 664.69 754.43 644.29"/><line class="cls-36" x1="743.95" y1="652.76" x2="752.22" y2="668.82"/><path class="cls-36" d="M788.41,703.58A14.65,14.65,0,0,0,805.3,693a14.67,14.67,0,0,0,15.22,1.1" transform="translate(-59.99 -51.39)"/><path class="cls-36" d="M815.87,700.78a7.88,7.88,0,0,0,12.5-6.75c.25-.1.5-.17.74-.29a9,9,0,0,0-5-17A7.88,7.88,0,0,0,808.68,674,14.67,14.67,0,0,0,782,685.55a6.76,6.76,0,0,0-5.42,9.84l.06.09a9.72,9.72,0,0,0-1.07.42,10.16,10.16,0,1,0,10.56,17.25,6.75,6.75,0,0,0,11.34-3.28" transform="translate(-59.99 -51.39)"/><path class="cls-1" d="M190.6,499l11.12,27,2.62-1.08c8.11-3.34,12.87-14.77,18.27-17l-4.45-10.8c-5.4,2.22-16.84-2.54-24.94.8l-41.85,17.23c-2.24.92-3.12,3.92.2,12l2.62,6.37c3.49,8.48,6.06,9.57,8.3,8.65l9.52-3.92-11.12-27Z" transform="translate(-59.99 -51.39)"/><rect class="cls-2" x="219.83" y="493.89" width="14.6" height="11.68" transform="translate(-233.14 72.71) rotate(-22.38)"/><rect class="cls-3" x="221.18" y="500.8" width="14.6" height="4.38" transform="translate(-234.28 73.47) rotate(-22.38)"/><rect class="cls-4" x="218.44" y="494.17" width="14.6" height="4.38" transform="translate(-231.96 71.93) rotate(-22.38)"/><rect class="cls-5" x="165.23" y="504" width="32.14" height="29.2" transform="translate(-243.77 56.68) rotate(-22.38)"/><path class="cls-6" d="M221.45,505.1l-.56-1.35c-5.4,2.22-12.39,8.25-20.5,11.59l-2.62,1.08,2.23,5.41,2.62-1.08C210.73,517.41,216,507.32,221.45,505.1Z" transform="translate(-59.99 -51.39)"/><path class="cls-6" d="M155.84,533.68a3.3,3.3,0,0,1-1.33.27c2.75,5.47,4.35,4.81,6.26,4l9.52-3.92-2.23-5.41Z" transform="translate(-59.99 -51.39)"/><path class="cls-7" d="M153.59,520.54l9.52-3.92-2.23-5.4L190.6,499l2.23,5.4,2.62-1.08c8.11-3.34,19,.08,24.39-2.15l-1.67-4.05c-5.4,2.22-16.84-2.54-24.94.8l-41.85,17.23c-2.24.92-3.12,3.92.2,12l1.67,4.06C149.92,523.12,151.36,521.46,153.59,520.54Z" transform="translate(-59.99 -51.39)"/><rect class="cls-8" x="169.35" y="524.83" width="32.14" height="7.55" transform="translate(-247.27 59) rotate(-22.38)"/><rect class="cls-9" x="160.79" y="504.88" width="32.14" height="5.84" transform="translate(-239.99 54.18) rotate(-22.38)"/><rect class="cls-10" x="219.83" y="493.89" width="14.6" height="11.68" transform="translate(-233.14 72.71) rotate(-22.38)"/><path class="cls-10" d="M160.83,511.24l-9.46,3.89c-2.24.92-3.12,3.92.2,12l2.62,6.37c3.49,8.47,6.06,9.57,8.3,8.65l9.46-3.89" transform="translate(-59.99 -51.39)"/><path class="cls-10" d="M218.16,497.11c-5.4,2.22-16.84-2.54-24.94.8l-2.67,1.1,11.12,27,2.67-1.1c8.11-3.34,12.87-14.77,18.27-17" transform="translate(-59.99 -51.39)"/><rect class="cls-10" x="165.17" y="504.03" width="32.14" height="29.2" transform="translate(-243.78 56.66) rotate(-22.38)"/><path class="cls-16" d="M280.2,632.6a7.63,7.63,0,0,0,1.26-.55Z" transform="translate(-59.99 -51.39)"/><path class="cls-16" d="M330.13,589.8c-3.67-6.82-11.18-11.89-23.51-7.43s-15.42,15.39-17,28.52c-.8,6.75-1.91,12.21-3.75,16h0a11,11,0,0,1-4.45,5.14L336.62,608S333.81,596.62,330.13,589.8Z" transform="translate(-59.99 -51.39)"/><path class="cls-17" d="M306.64,582.37a24.34,24.34,0,0,1,10.21-1.62h0c1.3-4.4-3.86-7.55-7.74-4.93s-8.87.34-8.87.34c-3.7-1.18-8.84.71-9.1,5.43s.5,6.06-2.27,8.21c-1.85,1.44-7.81,1.51-5.74,6.92,1.76,4.63-.21,6.58-2.63,7.87-3.79,2-4.2,5-2.63,7.61s5,4.17,2.82,7.35c-1.16,1.7-2.4,6.29,5.23,7.36,1.84-3.81,3-9.27,3.75-16C291.22,597.76,294.31,586.83,306.64,582.37Z" transform="translate(-59.99 -51.39)"/><path class="cls-18" d="M280.67,619.55c2.16-3.18-1.25-4.73-2.82-7.35s-1.16-5.59,2.62-7.6c2.42-1.29,4.39-3.24,2.63-7.87-2.06-5.41,3.89-5.48,5.74-6.92,2.77-2.15,2-3.49,2.28-8.22a5.83,5.83,0,0,1,3.77-5.16h0a9.78,9.78,0,0,0-8.31,2,49.07,49.07,0,0,0-18.2,38.67c0,8.78,1.14,15.92,9.1,15.92,3.87,0,6.53-2.18,8.43-6.11C278.27,625.84,279.52,621.25,280.67,619.55Z" transform="translate(-59.99 -51.39)"/><path class="cls-19" d="M286.05,591.29c.2-.16.39-.31.56-.46a8.8,8.8,0,0,0-2.92,1.55A9.7,9.7,0,0,0,286.05,591.29Z" transform="translate(-59.99 -51.39)"/><path class="cls-19" d="M277.63,607.1a6.36,6.36,0,0,0,2.19-2.13A6.55,6.55,0,0,0,277.63,607.1Z" transform="translate(-59.99 -51.39)"/><path class="cls-19" d="M294.89,576.43a11.59,11.59,0,0,0-1.33-.15,6.56,6.56,0,0,0-5,6c-.27,4.85.44,6.46-1.95,8.57a9.35,9.35,0,0,0,2.23-1c2.77-2.15,2-3.49,2.28-8.22a5.83,5.83,0,0,1,3.77-5.16Z" transform="translate(-59.99 -51.39)"/><path class="cls-19" d="M279.74,598.9c1.06,2.79.89,4.69.08,6.08.21-.13.43-.26.66-.38,2.42-1.29,4.39-3.24,2.63-7.87-.82-2.16-.36-3.46.59-4.34C281.13,593.33,278.08,594.54,279.74,598.9Z" transform="translate(-59.99 -51.39)"/><path class="cls-19" d="M274,615.92c1.73,2.89,5.48,4.59,3.1,8.09-1.21,1.78-2.49,6.44,4.64,7.9.36.07-.4-.06,0,0a8,8,0,0,0,1.84-1.46,13.65,13.65,0,0,0,2.36-3.52c-.41-.06-.78-.13-1.14-.21-6.34-1.35-5.18-5.55-4.09-7.16,2.16-3.18-1.25-4.73-2.82-7.35a4.77,4.77,0,0,1-.22-5.1q-.38.24-.78.45C272.69,609.77,272.23,613,274,615.92Z" transform="translate(-59.99 -51.39)"/><path class="cls-20" d="M280.18,632.61,336.62,608s-2.81-11.38-6.49-18.2-11.18-11.89-23.51-7.43-15.42,15.39-17,28.52C288,624.59,285.11,633,277.48,633c-8,0-9.1-7.15-9.1-15.92a49.07,49.07,0,0,1,18.2-38.67,9.79,9.79,0,0,1,8.31-2" transform="translate(-59.99 -51.39)"/><path class="cls-20" d="M285.91,626.91c-7.64-1.07-6.39-5.66-5.23-7.37,2.16-3.18-1.25-4.73-2.82-7.35s-1.16-5.59,2.62-7.61c2.42-1.29,4.39-3.24,2.63-7.87-2.06-5.41,3.89-5.48,5.74-6.92,2.77-2.15,2-3.49,2.28-8.21s5.4-6.61,9.1-5.43c0,0,5,2.27,8.87-.34s9,.54,7.74,4.93" transform="translate(-59.99 -51.39)"/><path class="cls-32" d="M424.33,676.63a7.88,7.88,0,0,0-15.42-2.74,14.67,14.67,0,0,0-26.69,11.56,6.76,6.76,0,0,0-5.42,9.84l.06.09a9.74,9.74,0,0,0-1.07.42A10.16,10.16,0,1,0,386.36,713a6.75,6.75,0,0,0,11.34-3.28l0,0-4-6.21a14.61,14.61,0,0,0,11.83-10.67,14.76,14.76,0,0,0,9.12,2.71h0l1.46,5.12a7.88,7.88,0,0,0,12.47-6.77c.25-.1.5-.17.74-.29a9,9,0,0,0-5-17Z" transform="translate(-59.99 -51.39)"/><path class="cls-33" d="M428.82,690.09c-.24.12-.49.19-.74.29a7.88,7.88,0,0,1-12.47,6.77L414.16,692h0a14.75,14.75,0,0,1-9.12-2.71A14.62,14.62,0,0,1,393.21,700a11.75,11.75,0,0,1-8.4-.93c3.88,4.53,3.81,8.24,1,10.44a10.07,10.07,0,0,1-15.52-5A10,10,0,0,0,386.39,713a6.75,6.75,0,0,0,11.34-3.28l0,0-1.2-1.86,0,0-2.81-4.35,1.54-.37a14.52,14.52,0,0,0,10.31-10.33,14.76,14.76,0,0,0,9.12,2.71h0l1.46,5.12a7.88,7.88,0,0,0,12.47-6.77c.25-.1.5-.17.74-.29a9,9,0,0,0,4.34-11.15A9,9,0,0,1,428.82,690.09Z" transform="translate(-59.99 -51.39)"/><path class="cls-34" d="M405.55,692.86a14.61,14.61,0,0,1-11.83,10.67l4,6.21,8.7,13.47L420.49,716l-4.36-15.27-1.46-5.12h0A14.76,14.76,0,0,1,405.55,692.86Z" transform="translate(-59.99 -51.39)"/><path class="cls-35" d="M414.67,695.57a14.76,14.76,0,0,1-9.12-2.71,14.61,14.61,0,0,1-11.83,10.67l4,6.21,8.7,13.47,3.4-1.75c-2.89-4.84-7-11.75-9-15.2a18.42,18.42,0,0,0,6.93-7.91c3.32,2.69,7.86,2.73,8.33,2.35l-1.46-5.12Z" transform="translate(-59.99 -51.39)"/><polyline class="cls-36" points="333.82 652.25 346.49 671.92 360.54 664.69 354.72 644.29"/><line class="cls-36" x1="344.24" y1="652.76" x2="352.51" y2="668.82"/><path class="cls-36" d="M388.7,703.58A14.65,14.65,0,0,0,405.59,693a14.67,14.67,0,0,0,15.22,1.1" transform="translate(-59.99 -51.39)"/><path class="cls-36" d="M416.16,700.78a7.88,7.88,0,0,0,12.5-6.75c.25-.1.5-.17.74-.29a9,9,0,0,0-5-17A7.88,7.88,0,0,0,409,674a14.67,14.67,0,0,0-26.69,11.56,6.76,6.76,0,0,0-5.42,9.84l.06.09a9.72,9.72,0,0,0-1.07.42,10.16,10.16,0,1,0,10.56,17.25,6.75,6.75,0,0,0,11.34-3.28" transform="translate(-59.99 -51.39)"/><circle class="cls-37" cx="162.01" cy="181.28" r="5.18" transform="translate(-131.22 61.28) rotate(-31.82)"/><path class="cls-37" d="M175,190.38a5.18,5.18,0,1,1-10.37-.06" transform="translate(-59.99 -51.39)"/><circle class="cls-37" cx="176.47" cy="181.2" r="5.18" transform="translate(-129.01 68.89) rotate(-31.82)"/><circle class="cls-37" cx="277.26" cy="268.62" r="5.18" transform="translate(-159.95 135.18) rotate(-31.82)"/><path class="cls-37" d="M290.24,277.71a5.18,5.18,0,1,1-10.37-.06" transform="translate(-59.99 -51.39)"/><circle class="cls-37" cx="291.72" cy="268.54" r="5.18" transform="translate(-157.73 142.79) rotate(-31.82)"/><circle class="cls-37" cx="100.26" cy="314.62" r="5.18" transform="translate(-210.81 48.76) rotate(-31.82)"/><path class="cls-37" d="M113.24,323.71a5.18,5.18,0,0,1-10.37-.06" transform="translate(-59.99 -51.39)"/><circle class="cls-37" cx="114.72" cy="314.54" r="5.18" transform="translate(-208.6 56.37) rotate(-31.82)"/><circle class="cls-37" cx="565.47" cy="181.28" r="5.18" transform="translate(-70.58 274.02) rotate(-31.82)"/><path class="cls-37" d="M578.45,190.38a5.18,5.18,0,1,1-10.37-.06" transform="translate(-59.99 -51.39)"/><circle class="cls-37" cx="579.93" cy="181.2" r="5.18" transform="translate(-68.36 281.63) rotate(-31.82)"/><circle class="cls-37" cx="680.72" cy="268.62" r="5.18" transform="translate(-99.3 347.92) rotate(-31.82)"/><path class="cls-37" d="M693.7,277.71a5.18,5.18,0,1,1-10.37-.06" transform="translate(-59.99 -51.39)"/><circle class="cls-37" cx="695.18" cy="268.54" r="5.18" transform="translate(-97.09 355.53) rotate(-31.82)"/><circle class="cls-37" cx="503.72" cy="314.62" r="5.18" transform="translate(-150.17 261.5) rotate(-31.82)"/><path class="cls-37" d="M516.7,323.71a5.18,5.18,0,1,1-10.37-.06" transform="translate(-59.99 -51.39)"/><circle class="cls-37" cx="518.18" cy="314.54" r="5.18" transform="translate(-147.95 269.11) rotate(-31.82)"/><circle class="cls-37" cx="969.47" cy="181.28" r="5.18" transform="translate(-9.85 487.04) rotate(-31.82)"/><path class="cls-37" d="M982.45,190.38a5.18,5.18,0,1,1-10.37-.06" transform="translate(-59.99 -51.39)"/><circle class="cls-37" cx="983.93" cy="181.2" r="5.18" transform="translate(-7.64 494.66) rotate(-31.82)"/><circle class="cls-37" cx="907.72" cy="314.62" r="5.18" transform="translate(-89.44 474.52) rotate(-31.82)"/><path class="cls-37" d="M920.7,323.71a5.18,5.18,0,0,1-10.37-.06" transform="translate(-59.99 -51.39)"/><circle class="cls-37" cx="922.18" cy="314.54" r="5.18" transform="translate(-87.22 482.14) rotate(-31.82)"/><circle class="cls-37" cx="277.26" cy="482.88" r="5.18" transform="translate(-272.93 167.38) rotate(-31.82)"/><path class="cls-37" d="M290.24,492a5.18,5.18,0,0,1-10.37-.06" transform="translate(-59.99 -51.39)"/><circle class="cls-37" cx="291.72" cy="482.8" r="5.18" transform="translate(-270.71 175) rotate(-31.82)"/><circle class="cls-37" cx="680.72" cy="482.88" r="5.18" transform="translate(-212.28 380.12) rotate(-31.82)"/><path class="cls-37" d="M693.7,492a5.18,5.18,0,0,1-10.37-.06" transform="translate(-59.99 -51.39)"/><circle class="cls-37" cx="695.18" cy="482.8" r="5.18" transform="translate(-210.07 387.74) rotate(-31.82)"/><circle class="cls-37" cx="503.72" cy="453.35" r="5.18" transform="translate(-223.32 282.35) rotate(-31.82)"/><path class="cls-37" d="M516.7,462.44a5.18,5.18,0,1,1-10.37-.06" transform="translate(-59.99 -51.39)"/><circle class="cls-37" cx="518.18" cy="453.27" r="5.18" transform="translate(-221.1 289.97) rotate(-31.82)"/><circle class="cls-37" cx="96.85" cy="453.35" r="5.18" transform="translate(-284.47 67.82) rotate(-31.82)"/><path class="cls-37" d="M109.83,462.44a5.18,5.18,0,1,1-10.37-.06" transform="translate(-59.99 -51.39)"/><circle class="cls-37" cx="111.31" cy="453.27" r="5.18" transform="translate(-282.26 75.43) rotate(-31.82)"/><circle class="cls-37" cx="907.72" cy="453.35" r="5.18" transform="translate(-162.59 495.38) rotate(-31.82)"/><path class="cls-37" d="M920.7,462.44a5.18,5.18,0,1,1-10.37-.06" transform="translate(-59.99 -51.39)"/><circle class="cls-37" cx="922.18" cy="453.27" r="5.18" transform="translate(-160.38 502.99) rotate(-31.82)"/><circle class="cls-37" cx="162.01" cy="574.62" r="5.18" transform="translate(-338.62 120.4) rotate(-31.82)"/><path class="cls-37" d="M175,583.71a5.18,5.18,0,1,1-10.37-.06" transform="translate(-59.99 -51.39)"/><circle class="cls-37" cx="176.47" cy="574.54" r="5.18" transform="translate(-336.41 128.02) rotate(-31.82)"/><circle class="cls-37" cx="277.26" cy="661.95" r="5.18" transform="translate(-367.35 194.3) rotate(-31.82)"/><path class="cls-37" d="M290.24,671a5.18,5.18,0,0,1-10.37-.06" transform="translate(-59.99 -51.39)"/><circle class="cls-37" cx="291.72" cy="661.87" r="5.18" transform="translate(-365.13 201.91) rotate(-31.82)"/><circle class="cls-37" cx="100.26" cy="707.95" r="5.18" transform="translate(-418.21 107.88) rotate(-31.82)"/><path class="cls-37" d="M113.24,717a5.18,5.18,0,0,1-10.37-.06" transform="translate(-59.99 -51.39)"/><circle class="cls-37" cx="114.72" cy="707.87" r="5.18" transform="translate(-415.99 115.5) rotate(-31.82)"/><circle class="cls-37" cx="565.47" cy="574.62" r="5.18" transform="translate(-277.98 333.14) rotate(-31.82)"/><path class="cls-37" d="M578.45,583.71a5.18,5.18,0,1,1-10.37-.06" transform="translate(-59.99 -51.39)"/><circle class="cls-37" cx="579.93" cy="574.54" r="5.18" transform="translate(-275.76 340.76) rotate(-31.82)"/><circle class="cls-37" cx="680.72" cy="661.95" r="5.18" transform="translate(-306.7 407.04) rotate(-31.82)"/><path class="cls-37" d="M693.7,671a5.18,5.18,0,0,1-10.37-.06" transform="translate(-59.99 -51.39)"/><circle class="cls-37" cx="695.18" cy="661.87" r="5.18" transform="translate(-304.49 414.65) rotate(-31.82)"/><circle class="cls-37" cx="503.72" cy="707.95" r="5.18" transform="translate(-357.56 320.62) rotate(-31.82)"/><path class="cls-37" d="M516.7,717a5.18,5.18,0,0,1-10.37-.06" transform="translate(-59.99 -51.39)"/><circle class="cls-37" cx="518.18" cy="707.87" r="5.18" transform="translate(-355.35 328.24) rotate(-31.82)"/><circle class="cls-37" cx="909.31" cy="707.95" r="5.18" transform="translate(-296.6 534.49) rotate(-31.82)"/><path class="cls-37" d="M922.29,717a5.18,5.18,0,0,1-10.37-.06" transform="translate(-59.99 -51.39)"/><circle class="cls-37" cx="923.78" cy="707.87" r="5.18" transform="translate(-294.38 542.1) rotate(-31.82)"/><rect x="201.9" y="453.83" width="8.14" height="8.14" transform="translate(-283.02 145.63) rotate(-34.48)"/><rect x="601.47" y="453.83" width="8.14" height="8.14" transform="translate(-212.84 371.81) rotate(-34.48)"/><rect x="218.31" y="168.46" width="8.14" height="8.14" transform="translate(-118.6 104.8) rotate(-34.48)"/><rect x="617.89" y="168.46" width="8.14" height="8.14" transform="translate(-48.41 330.98) rotate(-34.48)"/><rect x="390.98" y="195.8" width="8.14" height="8.14" transform="translate(-103.74 207.34) rotate(-34.48)"/><rect x="790.55" y="195.8" width="8.14" height="8.14" transform="translate(-33.56 433.52) rotate(-34.48)"/><rect x="310.31" y="311.8" width="8.14" height="8.14" transform="translate(-183.57 182.05) rotate(-34.48)"/><rect x="709.89" y="311.8" width="8.14" height="8.14" transform="translate(-113.39 408.23) rotate(-34.48)"/><rect x="420.98" y="345.8" width="8.14" height="8.14" transform="translate(-183.38 250.67) rotate(-34.48)"/><rect x="820.55" y="345.8" width="8.14" height="8.14" transform="translate(-113.2 476.85) rotate(-34.48)"/><rect x="280.31" y="536.46" width="8.14" height="8.14" transform="translate(-316.02 204.53) rotate(-34.48)"/><rect x="390.95" y="596.05" width="8.14" height="8.14" transform="translate(-330.31 277.62) rotate(-34.48)"/><rect x="791.63" y="595.99" width="8.14" height="8.14" transform="translate(-259.91 504.43) rotate(-34.48)"/><rect x="679.89" y="536.46" width="8.14" height="8.14" transform="translate(-245.84 430.71) rotate(-34.48)"/><rect x="595.65" y="384.46" width="8.14" height="8.14" transform="translate(-174.59 356.33) rotate(-34.48)"/><rect x="183.39" y="384.46" width="8.14" height="8.14" transform="translate(-247 122.96) rotate(-34.48)"/><rect x="995.22" y="384.46" width="8.14" height="8.14" transform="translate(-104.41 582.52) rotate(-34.48)"/><rect x="218.91" y="568.57" width="8.14" height="8.14" transform="translate(-439.04 397.97) rotate(-57.15)"/><rect x="618.38" y="568.57" width="8.14" height="8.14" transform="translate(-256.24 733.56) rotate(-57.15)"/><rect x="514.48" y="251.29" width="8.14" height="8.14" transform="translate(-37.24 501.1) rotate(-57.15)"/><rect x="679.29" y="136.54" width="8.14" height="8.14" transform="translate(134.58 587.05) rotate(-57.15)"/><rect x="279" y="136.98" width="8.14" height="8.14" transform="translate(-48.96 250.96) rotate(-57.15)"/><rect x="202.11" y="52.98" width="8.14" height="8.14" transform="translate(-56.07 75.34) rotate(-34.48)"/><rect x="601.68" y="52.98" width="8.14" height="8.14" transform="translate(14.11 301.52) rotate(-34.48)"/><polygon points="92.86 371.1 93.74 376.4 94.62 381.7 89.59 379.81 84.56 377.92 88.71 374.51 92.86 371.1"/><polygon points="493.36 371.1 494.24 376.4 495.12 381.7 490.09 379.81 485.06 377.92 489.21 374.51 493.36 371.1"/><polygon points="275.21 389.06 276.09 394.36 276.98 399.66 271.95 397.77 266.92 395.89 271.06 392.48 275.21 389.06"/><polygon points="675.71 389.06 676.59 394.36 677.48 399.66 672.45 397.77 667.42 395.89 671.56 392.48 675.71 389.06"/><polygon points="370.85 185.84 371.73 191.14 372.61 196.44 367.58 194.56 362.55 192.67 366.7 189.26 370.85 185.84"/><polygon points="771.35 185.84 772.23 191.14 773.11 196.44 768.08 194.56 763.05 192.67 767.2 189.26 771.35 185.84"/><polygon points="162.54 176.73 163.43 182.03 164.31 187.33 159.28 185.44 154.25 183.56 158.4 180.14 162.54 176.73"/><polygon points="563.04 176.73 563.93 182.03 564.81 187.33 559.78 185.44 554.75 183.56 558.9 180.14 563.04 176.73"/><polygon points="320.55 302.4 321.43 307.69 322.31 312.99 317.28 311.11 312.25 309.22 316.4 305.81 320.55 302.4"/><polygon points="721.04 302.4 721.93 307.69 722.81 312.99 717.78 311.11 712.75 309.22 716.9 305.81 721.04 302.4"/><polygon points="347.51 497.18 348.4 502.48 349.28 507.77 344.25 505.89 339.22 504 343.37 500.59 347.51 497.18"/><polygon points="748.01 497.18 748.9 502.48 749.78 507.77 744.75 505.89 739.72 504 743.87 500.59 748.01 497.18"/><polygon points="371.21 585.73 372.09 591.03 372.98 596.33 367.95 594.44 362.92 592.55 367.06 589.14 371.21 585.73"/><polygon points="771.71 585.73 772.59 591.03 773.48 596.33 768.45 594.44 763.42 592.55 767.56 589.14 771.71 585.73"/><polygon points="438.85 470.51 439.73 475.81 440.61 481.11 435.58 479.22 430.55 477.34 434.7 473.92 438.85 470.51"/><polygon points="839.35 470.51 840.23 475.81 841.11 481.11 836.08 479.22 831.05 477.34 835.2 473.92 839.35 470.51"/><polygon points="440.85 71.18 441.73 76.48 442.61 81.77 437.58 79.89 432.55 78 436.7 74.59 440.85 71.18"/><polygon points="841.35 71.18 842.23 76.48 843.11 81.77 838.08 79.89 833.05 78 837.2 74.59 841.35 71.18"/><polygon points="350.18 97.18 351.06 102.48 351.95 107.77 346.92 105.89 341.89 104 346.03 100.59 350.18 97.18"/><polygon points="750.68 97.18 751.56 102.48 752.45 107.77 747.42 105.89 742.39 104 746.53 100.59 750.68 97.18"/><polygon points="162.86 576.6 163.74 581.9 164.62 587.2 159.59 585.31 154.56 583.42 158.71 580.01 162.86 576.6"/><polygon points="563.36 576.6 564.24 581.9 565.12 587.2 560.09 585.31 555.06 583.42 559.21 580.01 563.36 576.6"/><polygon points="194.85 283.18 195.73 288.48 196.61 293.77 191.58 291.89 186.55 290 190.7 286.59 194.85 283.18"/><polygon points="595.35 283.18 596.23 288.48 597.11 293.77 592.08 291.89 587.05 290 591.2 286.59 595.35 283.18"/><path class="cls-27" d="M378.66,487.73h8s3.17,12,16,12,16-12,16-12h8l-8,42h-32Z" transform="translate(-59.99 -51.39)"/><polygon class="cls-38" points="318.67 436.34 326.67 478.34 329.68 478.34 321.68 436.34 318.67 436.34"/><path class="cls-39" d="M398.68,469.73v5.42l4,.56-1.13,8.11-2.18,15.63,3.31.29a18,18,0,0,0,4-.44h0V469.73Z" transform="translate(-59.99 -51.39)"/><path class="cls-39" d="M414.68,473.79v5.8h0l.83-.06.07,1,.87,11.91a17.7,17.7,0,0,0,2.23-4.68h4V473.79Z" transform="translate(-59.99 -51.39)"/><polygon class="cls-39" points="356.46 441.02 356.46 441.02 356.46 441.02 356.46 441.02"/><path class="cls-39" d="M415.58,480.5l-.07-1-.83.06-7.15.52,1.35,18.53a16.78,16.78,0,0,0,4.86-3,18.32,18.32,0,0,0,2.71-3.18h0Z" transform="translate(-59.99 -51.39)"/><polygon class="cls-39" points="331.83 444.39 331.82 444.38 331.82 444.39 331.83 444.39"/><path class="cls-39" d="M399.37,499.44l-7.55-3.65A15.3,15.3,0,0,0,399.37,499.44Z" transform="translate(-59.99 -51.39)"/><path class="cls-39" d="M402.68,475.71l-4-.56-3.92-.55-3,21.17h0l7.55,3.65h0l.13,0-.13,0,2.18-15.62Z" transform="translate(-59.99 -51.39)"/><path class="cls-39" d="M391.33,495.34h0l-2.73-19.61-7.92,1.1,1.52,10.9h4.48A18.31,18.31,0,0,0,391.33,495.34Z" transform="translate(-59.99 -51.39)"/><polygon class="cls-40" points="356.46 441.02 356.46 441.02 356.46 441.02 356.46 441.02"/><polygon class="cls-40" points="347.54 428.72 348.89 447.25 351.48 445.12 350.27 428.52 347.54 428.72"/><path class="cls-40" d="M399.49,498.63a15.19,15.19,0,0,1-4.67-2.84h0L397.7,475l-2.94-.41-3,21.17h0l7.55,3.65h0l.13,0-.13,0Z" transform="translate(-59.99 -51.39)"/><path class="cls-40" d="M399.37,499.44l-7.55-3.65A15.3,15.3,0,0,0,399.37,499.44Z" transform="translate(-59.99 -51.39)"/><path class="cls-40" d="M388.68,486.73H384.2l-1.42-10.19-2.1.29,1.52,10.9h4.48a18.31,18.31,0,0,0,4.65,7.61h0l-.58-4.18A17.58,17.58,0,0,1,388.68,486.73Z" transform="translate(-59.99 -51.39)"/><polygon class="cls-40" points="338.69 423.76 342 424.22 342 418.33 338.69 418.33 338.69 423.76"/><path class="cls-40" d="M414.68,473.79v5.8h0l.83-.06.07,1,.87,11.91a19.1,19.1,0,0,0,1.77-3.36V473.79Z" transform="translate(-59.99 -51.39)"/><path class="cls-28" d="M378.66,487.73h8s3.17,12,16,12,16-12,16-12h8l-8,42h-32Z" transform="translate(-59.99 -51.39)"/><polyline class="cls-28" points="338.67 423.76 338.67 418.33 346.67 418.33 346.67 447.91"/><polyline class="cls-28" points="354.67 428.2 354.67 422.4 362.67 422.4 362.67 436.34"/><polyline class="cls-28" points="348.87 447.25 347.52 428.72 355.5 428.13 356.44 441.02"/><polyline class="cls-28" points="331.8 444.39 334.75 423.21 342.67 424.31 339.37 448.05"/><polyline class="cls-28" points="331.33 443.95 328.6 424.34 320.67 425.44 322.19 436.34"/><path class="cls-27" d="M778.31,487.73h8s3.17,12,16,12,16-12,16-12h8l-8,42h-32Z" transform="translate(-59.99 -51.39)"/><polygon class="cls-38" points="718.33 436.34 726.33 478.34 729.33 478.34 721.33 436.34 718.33 436.34"/><path class="cls-39" d="M798.33,469.73v5.42l4,.56-1.13,8.11L799,499.44l3.31.29a18,18,0,0,0,4-.44h0V469.73Z" transform="translate(-59.99 -51.39)"/><path class="cls-39" d="M814.33,473.79v5.8h0l.83-.06.07,1,.87,11.91a17.7,17.7,0,0,0,2.23-4.68h4V473.79Z" transform="translate(-59.99 -51.39)"/><polygon class="cls-39" points="756.11 441.02 756.11 441.02 756.11 441.02 756.11 441.02"/><path class="cls-39" d="M815.23,480.5l-.07-1-.83.06-7.15.52,1.35,18.53a16.78,16.78,0,0,0,4.86-3,18.32,18.32,0,0,0,2.71-3.18h0Z" transform="translate(-59.99 -51.39)"/><polygon class="cls-39" points="731.48 444.39 731.47 444.38 731.47 444.39 731.48 444.39"/><path class="cls-39" d="M799,499.44l-7.55-3.65A15.3,15.3,0,0,0,799,499.44Z" transform="translate(-59.99 -51.39)"/><path class="cls-39" d="M802.33,475.71l-4-.56-3.92-.55-3,21.17h0l7.55,3.65h0l.13,0-.13,0,2.18-15.62Z" transform="translate(-59.99 -51.39)"/><path class="cls-39" d="M791,495.34h0l-2.73-19.61-7.92,1.1,1.52,10.9h4.48A18.31,18.31,0,0,0,791,495.34Z" transform="translate(-59.99 -51.39)"/><polygon class="cls-40" points="756.11 441.02 756.11 441.02 756.11 441.02 756.11 441.02"/><polygon class="cls-40" points="747.2 428.72 748.54 447.25 751.13 445.12 749.92 428.52 747.2 428.72"/><path class="cls-40" d="M799.14,498.63a15.19,15.19,0,0,1-4.67-2.84h0L797.35,475l-2.94-.41-3,21.17h0l7.55,3.65h0l.13,0-.13,0Z" transform="translate(-59.99 -51.39)"/><path class="cls-40" d="M799,499.44l-7.55-3.65A15.3,15.3,0,0,0,799,499.44Z" transform="translate(-59.99 -51.39)"/><path class="cls-40" d="M788.33,486.73h-4.48l-1.42-10.19-2.1.29,1.52,10.9h4.48a18.31,18.31,0,0,0,4.65,7.61h0l-.58-4.18A17.58,17.58,0,0,1,788.33,486.73Z" transform="translate(-59.99 -51.39)"/><polygon class="cls-40" points="738.35 423.76 741.66 424.22 741.66 418.33 738.35 418.33 738.35 423.76"/><path class="cls-40" d="M814.33,473.79v5.8h0l.83-.06.07,1,.87,11.91a19.1,19.1,0,0,0,1.77-3.36V473.79Z" transform="translate(-59.99 -51.39)"/><path class="cls-28" d="M778.31,487.73h8s3.17,12,16,12,16-12,16-12h8l-8,42h-32Z" transform="translate(-59.99 -51.39)"/><polyline class="cls-28" points="738.33 423.76 738.33 418.33 746.33 418.33 746.33 447.91"/><polyline class="cls-28" points="754.33 428.2 754.33 422.4 762.33 422.4 762.33 436.34"/><polyline class="cls-28" points="748.52 447.25 747.17 428.72 755.15 428.13 756.09 441.02"/><polyline class="cls-28" points="731.45 444.39 734.4 423.21 742.33 424.31 739.02 448.05"/><polyline class="cls-28" points="730.98 443.95 728.25 424.34 720.32 425.44 721.84 436.34"/></svg>